<?xml version="1.0" encoding="UTF-8" standalone="no"?>
<!-- Created with Inkscape (http://www.inkscape.org/) -->

<svg
   version="1.1"
   id="svg2"
   width="61.026669"
   height="90.666664"
   viewBox="0 0 61.026669 90.666664"
   sodipodi:docname="caracas-fc-seeklogo.eps"
   xmlns:inkscape="http://www.inkscape.org/namespaces/inkscape"
   xmlns:sodipodi="http://sodipodi.sourceforge.net/DTD/sodipodi-0.dtd"
   xmlns="http://www.w3.org/2000/svg"
   xmlns:svg="http://www.w3.org/2000/svg">
  <defs
     id="defs6" />
  <sodipodi:namedview
     id="namedview4"
     pagecolor="#ffffff"
     bordercolor="#000000"
     borderopacity="0.25"
     inkscape:showpageshadow="2"
     inkscape:pageopacity="0.0"
     inkscape:pagecheckerboard="0"
     inkscape:deskcolor="#d1d1d1" />
  <g
     id="g8"
     inkscape:groupmode="layer"
     inkscape:label="ink_ext_XXXXXX"
     transform="matrix(1.3333333,0,0,-1.3333333,0,90.666667)">
    <g
       id="g10"
       transform="scale(0.1)">
      <path
         d="m 247.672,2.10938 c 0.672,-2.0898487 -0.223,-2.738286 -2.004,-1.445317 L 228.344,13.2656 211.012,0.664063 c -1.774,-1.292969 -2.668,-0.6445317 -1.996,1.445317 l 6.625,20.37892 -17.356,12.6133 c -1.762,1.289 -1.422,2.332 0.774,2.332 h 21.433 l 6.617,20.3828 c 0.664,2.0781 1.786,2.0781 2.477,0 l 6.609,-20.3828 h 21.434 c 2.191,0 2.535,-1.043 0.762,-2.3516 L 241.063,22.4883 247.672,2.10938"
         style="fill:#000000;fill-opacity:1;fill-rule:nonzero;stroke:none"
         id="path12" />
      <path
         d="m 213.125,5.75781 5.816,17.88669 -15.226,11.0743 h 18.82 l 5.809,17.8789 5.812,-17.8789 h 18.813 L 237.742,23.6445 243.555,5.75781 228.344,16.8164 213.125,5.75781"
         style="fill:#fff000;fill-opacity:1;fill-rule:nonzero;stroke:none"
         id="path14" />
      <path
         d="m 419.883,286.051 c 0,0 -7.496,0.594 -12.574,6 0,0 5.449,3.461 6.5,10.308 0,0 -10.465,2.098 -14.469,6.778 0,0 4.004,2.441 5.57,7.426 -24.34,9.433 -38.558,83.593 0.32,124.414 l 4.399,4.632 -9.547,14.871 -5.281,-0.863 c -24.973,-4.086 -44.031,-1.398 -58.524,3.281 -7.324,2.383 -13.574,5.286 -18.859,8.188 -5.488,3.012 -10,6 -13.707,8.402 l -4.707,3.071 -4.535,-3.317 c -17.848,-13.07 -46.364,-16.98 -66.133,-16.98 -19.766,0 -48.285,3.91 -66.133,16.98 l -4.531,3.317 -4.707,-3.071 c -3.707,-2.402 -8.223,-5.39 -13.711,-8.402 -5.289,-2.902 -11.539,-5.805 -18.859,-8.188 -14.497,-4.679 -33.5552,-7.367 -58.52,-3.281 l -5.2812,0.863 -9.5547,-14.871 4.4023,-4.632 c 38.875,-40.821 24.6602,-114.981 0.3203,-124.414 1.5625,-4.985 5.5742,-7.426 5.5742,-7.426 -4.0117,-4.68 -14.4687,-6.778 -14.4687,-6.778 1.0469,-6.847 6.4961,-10.308 6.4961,-10.308 -5.082,-5.406 -12.5781,-6 -12.5781,-6 1.539,-8.981 4.6875,-12.656 8.4726,-16.797 -8.2422,-19.387 -9.6094,-61.828 7.375,-92.207 40.5508,-72.555 109.9652,-49.508 143.9842,-95.6173 5.809,5.6367 14.168,13 14.168,13 5.899,-8.7774 17.551,-19.0313 17.551,-19.0313 0,0 11.648,10.2539 17.547,19.0313 0,0 8.363,-7.3633 14.176,-13 34.019,46.1093 103.433,23.0623 143.98,95.6173 16.981,30.379 15.617,72.82 7.371,92.207 3.785,4.141 6.942,7.816 8.473,16.797"
         style="fill:#000000;fill-opacity:1;fill-rule:nonzero;stroke:none"
         id="path16" />
      <path
         d="m 409.926,281.813 c -8.164,1.316 -14.305,10.273 -14.305,10.273 0,0 4.848,1.973 7.41,6.238 -8.66,2.985 -15.695,11.489 -15.695,11.489 0,0 4.738,1.363 8.285,5.007 -20.086,9.688 -39.172,86.75 3.711,131.785 l -3.219,4.993 c -52.527,-8.578 -81.465,11.062 -96.832,21.078 -20.023,-14.649 -50.746,-18.567 -70.945,-18.567 -20.195,0 -50.918,3.918 -70.941,18.567 C 142.027,462.66 113.09,443.02 60.5547,451.598 l -3.2149,-4.993 c 42.8872,-45.035 23.793,-122.097 3.711,-131.785 3.543,-3.644 8.2851,-5.007 8.2851,-5.007 0,0 -7.0312,-8.504 -15.6914,-11.489 2.5586,-4.265 7.4063,-6.238 7.4063,-6.238 0,0 -6.1445,-8.957 -14.3047,-10.273 2.6914,-6.055 9.2109,-8.418 9.2109,-8.418 -7.6523,-10.27 -14.2929,-58.665 3.5235,-91.957 36.0664,-67.434 105.2425,-48.895 138.2895,-87.7466 1.804,3.0625 11.085,10.7346 15.023,11.4416 2.859,-3.926 12.875,-16.4025 15.543,-18.1994 2.664,1.7969 12.68,14.2734 15.547,18.1994 3.93,-0.707 13.211,-8.3791 15.019,-11.4416 33.051,38.8516 102.219,20.3126 138.286,87.7466 17.816,33.292 11.175,81.687 3.527,91.957 0,0 6.515,2.363 9.211,8.418"
         style="fill:#1e59ae;fill-opacity:1;fill-rule:nonzero;stroke:none"
         id="path18" />
      <path
         d="m 399.531,238.082 c -3.468,42.801 -28.086,66.438 -35.551,111.984 -5.027,30.579 2.844,67.028 22.504,89.961 l -3.343,6.707 c 0,0 -41.278,-12.511 -82.75,17.551 -32.047,-16.262 -47.649,-16.105 -72.055,-16.105 -24.406,0 -40.012,-0.157 -72.059,16.105 -41.468,-30.062 -82.7418,-17.551 -82.7418,-17.551 l -3.3516,-6.707 C 89.8477,417.094 97.7148,380.645 92.6914,350.066 85.2227,304.52 60.6094,280.883 57.1445,238.082 51.9648,173.695 121.84,114.516 228.336,115.473 c 106.492,-0.957 176.371,58.222 171.195,122.609"
         style="fill:#000000;fill-opacity:1;fill-rule:nonzero;stroke:none"
         id="path20" />
      <path
         d="m 357.672,344.371 c -3.75,24.481 -4.395,58.465 15.16,92.254 -44.734,-1.941 -65.375,16.234 -72.773,20.168 -15.219,-9.332 -37.848,-16.438 -71.723,-16.438 -33.871,0 -56.5,7.106 -71.727,16.438 -7.394,-3.934 -28.031,-22.109 -72.7692,-20.168 C 103.395,402.836 102.75,368.852 99,344.371 91.9531,298.57 62.7344,273.738 64.4297,226.344 66.2344,176.121 121.508,123.043 228.336,123.043 c 106.824,0 162.098,53.078 163.906,103.301 1.699,47.394 -27.523,72.226 -34.57,118.027"
         style="fill:#ee2722;fill-opacity:1;fill-rule:nonzero;stroke:none"
         id="path22" />
      <path
         d="m 64.5039,557.988 c 1.707,-3.039 3.3047,-5.922 4.2266,-10.211 1.8593,-9.004 -0.6094,-18.339 -5.6055,-26.039 C 50.6797,502.512 30.5508,503.18 16.7266,512.129 2.23047,521.52 -6.22656,540.742 5.58203,559 c 5.28517,8.148 13.23047,14.066 22.68357,15.957 3.8477,0.75 6.3672,0.652 9.2539,0.402 l -2.1484,-18.882 c -4.0898,0.726 -11.4883,1.82 -16.1484,-5.344 -2.4219,-3.754 -2.1993,-7.25 -1.7969,-9.125 1.2812,-6.574 7.3945,-10.524 9.5273,-11.895 8.0117,-5.191 17.4961,-7.121 22.9336,1.278 5.1367,7.941 -0.3515,14.836 -1.7969,16.652 l 16.4141,9.945"
         style="fill:#000000;fill-opacity:1;fill-rule:nonzero;stroke:none"
         id="path24" />
      <path
         d="m 74.8789,603.531 9.2852,-21.797 10.5429,8.922 z m -20.5391,6.559 17.6485,14.926 59.7657,-33.528 -16.672,-14.101 -7.914,4.992 -17.0703,-14.445 3.5976,-8.625 -16.6601,-14.09 -22.6954,64.871"
         style="fill:#000000;fill-opacity:1;fill-rule:nonzero;stroke:none"
         id="path26" />
      <path
         d="m 136.035,647.484 5.492,-13.957 7.86,3.078 c 3.136,1.231 9.074,3.786 6.414,10.543 -2.696,6.86 -8.676,4.7 -11.973,3.395 z m -23.883,5.079 29.786,11.707 c 5.66,2.218 11.23,4.007 15.46,3.918 9.29,-0.247 14.832,-7.446 17.106,-13.208 0.902,-2.281 2.73,-7.699 0.152,-13.804 -1.375,-3.465 -3.535,-5.41 -5.906,-7.602 l 24.047,-18.39 -20.984,-8.235 -19.887,16.504 -5.574,-2.199 8.277,-21.07 -18.949,-7.442 -23.528,59.821"
         style="fill:#000000;fill-opacity:1;fill-rule:nonzero;stroke:none"
         id="path28" />
      <path
         d="m 233.75,661.43 -7.582,-22.453 13.812,-0.364 z m -10.984,18.57 23.093,-0.609 22.332,-64.797 -21.812,0.566 -2.59,8.996 -22.375,0.586 -3.031,-8.844 -21.813,0.571 26.196,63.531"
         style="fill:#000000;fill-opacity:1;fill-rule:nonzero;stroke:none"
         id="path30" />
      <path
         d="m 328.773,607.617 c -2.656,-2.246 -5.179,-4.375 -9.203,-6.09 -8.484,-3.554 -18.125,-2.898 -26.64,0.528 -21.258,8.55 -24.418,28.449 -18.289,43.738 6.453,16 23.718,27.977 43.871,19.863 9.043,-3.629 16.355,-10.312 20.004,-19.222 1.472,-3.633 1.843,-6.137 2.175,-9.004 l -18.937,-1.489 c -0.098,4.153 -0.422,11.633 -8.34,14.825 -4.152,1.664 -7.555,0.769 -9.309,0 -6.199,-2.493 -8.914,-9.231 -9.863,-11.602 -3.582,-8.855 -3.637,-18.519 5.641,-22.266 8.769,-3.531 14.512,3.184 16,4.938 l 12.89,-14.219"
         style="fill:#000000;fill-opacity:1;fill-rule:nonzero;stroke:none"
         id="path32" />
      <path
         d="m 377.148,607.426 -19.687,-13.172 10.73,-8.684 z m 2.618,21.433 17.937,-14.566 -21.785,-64.977 -16.938,13.766 3.418,8.699 -17.363,14.086 -7.812,-5.164 -16.953,13.735 59.496,34.421"
         style="fill:#000000;fill-opacity:1;fill-rule:nonzero;stroke:none"
         id="path34" />
      <path
         d="m 403.605,550.813 c -1.433,-3.047 -2.593,-5.602 -1.171,-11.266 0.64,-2.711 1.929,-5.793 3.589,-8.379 0.868,-1.383 5.29,-8.059 9.211,-5.582 0.375,0.234 2.383,1.508 1.496,5.141 -0.535,2.355 -5.082,13.468 -5.937,16.019 -1.84,5.844 -4.938,17.539 6.512,24.777 2.386,1.504 5.183,2.524 7.953,2.879 10.246,1.512 19.18,-5.656 25.328,-15.402 3.93,-6.246 6.293,-12.711 6.891,-18.578 0.57,-5.34 -0.329,-8.68 -1.114,-11.859 l -15.773,5.074 c 0.527,1.539 1.172,3.211 0.902,6.39 -0.445,4.118 -2.605,8.563 -4.351,11.321 -1.832,2.933 -4.645,5.672 -7.43,3.906 -2.606,-1.637 -1.551,-4.856 0.57,-10.063 5.539,-13.382 10.934,-26.73 -2.504,-35.214 -5.687,-3.606 -11.191,-3.75 -15.273,-2.875 -11.32,2.429 -18.211,13.343 -20.109,16.339 -2.567,4.055 -4.907,8.625 -6.325,13.622 -2.988,10.156 -0.675,17.218 0.778,21.554 l 16.757,-7.804"
         style="fill:#000000;fill-opacity:1;fill-rule:nonzero;stroke:none"
         id="path36" />
      <path
         d="m 210.531,572.691 v -14.195 h -30.543 v -11.539 h 28.551 v -13.809 h -28.551 v -24.656 h -20.269 v 64.199 h 50.812"
         style="fill:#000000;fill-opacity:1;fill-rule:nonzero;stroke:none"
         id="path38" />
      <path
         d="m 299.023,525.051 c -1.636,-3.094 -3.187,-6.004 -6.281,-9.094 -6.543,-6.445 -15.726,-9.469 -24.906,-9.469 -22.91,0 -33.262,17.289 -33.262,33.75 0,17.274 11.543,34.825 33.262,34.825 9.73,0 19,-3.469 25.734,-10.383 2.719,-2.817 3.996,-4.992 5.356,-7.535 l -17.008,-8.454 c -1.625,3.809 -4.715,10.633 -13.258,10.633 -4.461,0 -7.273,-2.094 -8.644,-3.469 -4.813,-4.625 -4.813,-11.902 -4.813,-14.453 0,-9.539 3.543,-18.55 13.543,-18.55 9.453,0 12.289,8.375 13,10.57 l 17.277,-8.371"
         style="fill:#000000;fill-opacity:1;fill-rule:nonzero;stroke:none"
         id="path40" />
      <path
         d="m 337.195,364.605 c -0.031,-0.058 -0.066,-0.093 -0.109,-0.125 0,0.184 0.043,0.461 0.125,0.84 0.098,-0.293 0.094,-0.558 -0.016,-0.715 z m -10.363,-37.453 c -0.426,-1.152 -0.918,-1.582 -1.141,-1.664 -0.078,-0.039 -0.164,-0.039 -0.23,-0.066 0,0.18 0.019,0.484 0.086,0.926 0.101,0.593 -0.117,1.25 -0.598,1.656 -0.207,0.18 -0.472,0.297 -0.73,0.371 0.179,0.117 0.328,0.27 0.433,0.457 0.414,0.578 0.414,1.371 0.02,1.973 -0.234,0.34 -0.274,0.636 -0.156,1.015 0.269,0.77 1.222,1.676 2.422,2.364 0.753,-2.266 0.601,-5.145 -0.106,-7.032 z m -7.238,27.086 c 0.156,0.27 0.39,0.617 0.64,0.617 0.086,0 0.219,-0.015 0.348,-0.07 -0.348,-0.144 -0.68,-0.344 -0.988,-0.547 z m 2.316,-56.031 c 8.328,-14.219 13.828,-23.602 6.641,-36.105 -1.305,-2.266 -7.399,-8.758 -17.805,-8.758 -2.871,0 -5.879,0.504 -8.922,1.461 -0.14,0.054 -0.277,0.054 -0.418,0.066 -4.953,4.301 -11.254,6.645 -15.508,6.645 -0.293,0 -0.578,-0.012 -0.859,-0.051 -1.664,2.66 -6.07,10.359 -7.305,13.629 0.098,0.625 0.231,1.371 0.368,2.226 0.957,5.649 1.914,11.68 2.195,15.871 1.953,-3.113 2.863,-7.5 2.863,-7.5 0,0 3.992,1.094 3.047,11.219 0.848,-0.383 1.731,-0.601 2.586,-0.812 1.984,-0.477 3.555,-0.86 4.504,-3.086 l 1.012,-2.364 1.152,2.317 c 1.691,3.351 2.422,6.57 0.562,10.84 0.262,-0.02 0.532,-0.039 0.774,-0.039 3.348,0 6.141,1.472 7.812,4.156 1.871,2.933 1.934,6.441 1.075,8.277 l -0.657,1.375 -1.179,-0.953 c -1.274,-1.047 -2.063,-1.277 -2.493,-1.277 -0.207,0 -0.5,0.051 -0.824,0.418 -1.144,1.281 -1.453,4.929 -1.218,7.082 0.25,2.351 0.078,6.367 -3.122,9.336 1.852,0.668 3.301,1.746 4.204,3.156 1.148,1.719 1.418,3.805 0.832,6.086 l -0.282,1.101 -1.121,-0.226 c -0.308,-0.067 -0.629,-0.09 -0.918,-0.09 -2.304,0 -3.679,1.91 -4.312,3.043 -1.289,2.402 -1.508,5.508 -0.5,7.063 2.625,3.996 4.574,11.734 4.722,18.773 0.172,6.434 -3.949,10.871 -5.226,12.105 -0.039,0.262 -0.098,0.598 -0.184,1.02 1.239,-0.481 2.375,-0.641 3.27,-0.641 2.332,0 4.414,0.996 5.258,2.422 -0.786,-5.558 -1.079,-10.926 -1.145,-15.367 -0.461,-35.605 12.008,-56.871 21.121,-72.418 z m -94.406,73.203 c -1.395,1.016 -3.965,1.86 -8.672,1.86 -1.269,0 -2.66,-0.051 -4.144,-0.2 -0.153,1.871 0.167,4.258 0.316,5.118 0.016,0.082 0.035,0.191 0.051,0.25 0.359,0.285 0.89,0.656 1.398,1.05 0.61,0 1.18,0.02 1.723,0.02 5.383,0 8.953,-0.516 10.871,-1.559 0,-2.285 -0.629,-4.511 -1.543,-6.539 z m 119.195,-33.367 c -0.996,2.25 -2.679,3.809 -4.219,4.852 1.567,1.402 2.438,3.507 2.364,5.796 -0.031,1.805 -0.641,3.317 -1.625,4.075 -0.137,0.093 -0.305,0.183 -0.465,0.257 0.59,2.243 -0.332,4.375 -1.465,6.086 1.856,2.047 2.047,4.364 1.504,6.043 -0.59,1.782 -1.992,2.985 -3.477,2.985 -0.355,0 -0.711,-0.074 -1.039,-0.203 0.114,0.203 0.239,0.425 0.371,0.656 6.278,10.887 12.325,31.586 6.079,43.527 -2.614,4.992 -7.168,7.895 -13.204,8.406 -0.796,0.067 -1.574,0.125 -2.347,0.125 -10.168,0 -17.805,-5.769 -22.656,-17.101 -2.024,-4.758 -3.34,-9.988 -4.215,-15.172 l -1.559,-0.383 c -0.082,-0.027 -0.148,-0.043 -0.238,-0.043 -1.363,0 -3.219,3.184 -4.981,6.246 -3.336,5.762 -7.855,13.535 -16.023,14.133 1.199,1.867 2.242,4.305 1.605,6.281 l -0.48,1.414 -1.297,-0.785 c -2.812,-1.765 -5.461,-2.593 -8.309,-2.593 -2.277,0 -4.386,0.519 -6.605,1.066 -2.211,0.531 -4.48,1.094 -6.93,1.094 -0.425,0 -0.851,-0.032 -1.281,-0.043 -9.551,-0.809 -14.652,-6.996 -15.969,-8.817 -12.75,-1.519 -17.898,-6.965 -19.851,-9.047 -0.067,-0.046 -0.137,-0.117 -0.172,-0.183 -2.363,-0.117 -7.598,-1.563 -9.985,-3.125 -0.097,0 -0.191,0.019 -0.304,0.019 -2.414,0 -6.074,-1.461 -8.254,-2.347 l -0.133,-0.035 c -0.039,-0.02 -2.949,-1.34 -2.535,-3.086 0.484,-2.118 1.871,-3.879 3.461,-5.911 l 0.086,-0.117 c 1.492,-2.812 3.582,-4.593 5.226,-5.187 0.621,-1.824 2.297,-3.321 4.102,-4.176 -5.16,-0.914 -8.934,-3.332 -12.594,-5.719 -3.726,-2.398 -7.234,-4.703 -11.847,-4.847 -2.926,-0.114 -4.379,1.3 -5.059,2.48 -1.047,1.785 -0.91,3.969 -0.262,5.102 0.457,0.765 1.035,0.937 1.797,0.531 0.285,-0.16 0.598,-0.16 0.848,0 0.258,0.148 0.426,0.441 0.426,0.726 0,4.504 -2.793,6.082 -5.176,6.082 -2.711,0 -5.461,-1.699 -7.207,-4.324 -0.309,1.871 0.148,3.981 1.332,5.887 1.465,2.402 3.66,3.777 5.836,3.59 0.257,-0.039 0.531,0.055 0.707,0.281 0.172,0.215 0.25,0.484 0.187,0.762 -0.445,1.972 -2.41,3.152 -4.066,3.668 7.219,13.246 12.828,35.441 -0.246,45.136 -2.528,1.864 -5.657,2.844 -9.075,2.844 -4.332,0 -8.421,-1.59 -10.988,-4.269 -1.84,-1.942 -2.746,-4.325 -2.625,-6.875 0.012,-0.305 0.199,-0.586 0.481,-0.723 0.265,-0.137 0.593,-0.121 0.843,0.047 1.961,1.32 3.887,1.992 5.684,1.992 3.074,0 5.801,-1.953 7.484,-5.387 1.985,-4.031 1.95,-8.953 0.02,-12.488 -2.883,6.317 -7.82,7.016 -9.918,7.016 -3.09,0 -5.949,-1.387 -7.305,-3.571 -0.929,-1.472 -1.019,-3.128 -0.254,-4.679 0.09,-0.227 0.305,-0.387 0.543,-0.446 0.219,-0.07 0.481,-0.019 0.68,0.098 2.063,1.324 3.582,1.152 4.34,-0.68 1,-2.402 0.265,-6.953 -2.399,-9.625 -1.093,-1.101 -2.48,-2.246 -3.945,-3.484 -2.301,-1.949 -4.66,-3.926 -6.328,-5.992 -3.23,3.281 -3.555,6.629 -2.742,8.75 0.957,2.512 3.554,3.75 6.539,3.094 0.223,-0.051 0.473,0 0.668,0.132 0.183,0.125 0.316,0.317 0.351,0.555 0.176,0.977 -0.086,1.902 -0.75,2.719 -1.164,1.394 -3.449,2.222 -6.101,2.222 -4.106,0 -9.34,-2.062 -12.289,-7.765 -1.887,2.961 -1.153,5.648 -0.504,7.105 1.473,3.196 4.836,5.348 8.379,5.348 1.133,0 2.25,-0.23 3.304,-0.66 0.258,-0.102 0.551,-0.07 0.793,0.09 0.231,0.148 0.368,0.41 0.372,0.675 0.062,1.582 -0.567,3.082 -1.778,4.352 -1.988,2.051 -5.406,3.266 -9.137,3.266 -7.519,0 -16.781,-5.082 -18.156,-19.496 -0.57,-5.942 1.113,-11.411 4.871,-15.809 4.168,-4.856 11.563,-7.523 14.805,-7.949 2.047,-2.785 4.926,-4.93 7.801,-6.555 -0.485,-0.535 -1.215,-1.293 -2.051,-1.293 -1.445,0 -2.926,0.895 -4.066,2.441 -0.161,0.2 -0.387,0.333 -0.657,0.34 -0.254,0.02 -0.5,-0.082 -0.679,-0.304 -1.825,-2.168 -2.438,-5.34 -1.606,-8.27 0.852,-2.937 3.563,-5.07 6.445,-5.988 8.95,-2.195 15.293,1.496 17.262,2.824 1.758,-0.562 8.332,-2.566 13.336,-2.117 1.25,-0.977 6.25,-4.465 14.274,-4.465 0.531,0 1.062,0 1.609,0.031 8.828,0.524 14.105,5.461 18.75,9.821 3.144,2.925 6.09,5.687 9.719,6.664 0.863,0.25 1.644,0.351 2.312,0.351 h 0.121 c -0.414,-1.07 -0.906,-3.262 0.289,-7.062 2.301,-7.231 8.782,-8.457 9.071,-8.492 l 1.336,-0.219 0.054,1.359 c 0.157,3.688 1.391,5.082 2.403,5.586 0.035,-2.809 -0.371,-6.734 -2.536,-9.059 -1.234,-1.285 -2.867,-1.929 -5.007,-1.929 -0.278,0 -0.543,0.019 -0.828,0.039 -4.551,0.316 -5.161,2.285 -5.762,4.183 -0.156,0.532 -0.309,1.004 -0.539,1.477 l -0.578,1.129 -1.09,-0.621 c -1.852,-1.067 -3.184,-3.07 -3.692,-5.488 -0.379,-1.836 -0.226,-3.719 0.383,-5.317 -3.945,-0.562 -7.183,-3.258 -7.5,-6.484 l -0.14,-1.477 c -5.801,1.164 -18.075,3.77 -21.149,5.223 -3.629,1.711 -6.351,3.367 -6.933,3.715 -1.379,1.234 -6.965,6.105 -10.282,6.601 -1.183,0.18 -2.215,0.246 -3.164,0.18 -1.859,-0.121 -3.332,-0.727 -4.402,-1.809 -1.899,1.082 -4.418,2.215 -7.457,2.016 -0.309,-0.023 -0.664,-0.063 -0.977,-0.109 -4.89,-0.774 -6.687,-3.219 -7.343,-5.024 0,0 -0.059,-0.019 -0.067,-0.031 -2.199,-1.203 -6.64,-3.609 -5.492,-9.438 -1.148,-0.476 -2.285,-1.086 -2.879,-2.785 -1,-2.863 -1.629,-8.758 2.617,-11.648 0.582,-3.289 2.656,-10.07 8.653,-8.66 3.218,-0.848 4.261,0.168 5.164,0.89 0,0 -1.34,1.102 -1.129,1.871 0.789,0.664 1.058,1.207 1.113,1.477 0.141,0 0.281,0.019 0.426,0.019 2.058,0.133 6.082,0.774 10.207,3.375 2.941,0.618 4.758,0.954 5.722,1.028 h 0.309 c 1.031,-0.442 2.113,-0.613 3.305,-0.528 0.172,0.02 0.344,0.04 0.527,0.055 0.582,0.063 1.551,0.184 2.594,0.656 0.613,-1.828 1.285,-4.5 4.836,-6.711 0,0 0.679,1.594 1.879,2.84 0.14,-2.164 1.656,-5.644 4.629,-8.027 0,0 0.879,2.199 1.324,3.262 0.508,-1.735 2.308,-3.84 3.789,-5.082 -6.516,-1.36 -13.836,-3.02 -17.117,-4.317 -6.41,-0.586 -8.887,-1.086 -10.352,-1.379 l -0.351,-0.066 c -0.024,-0.02 -0.09,-0.02 -0.282,-0.02 -0.371,0.036 -0.929,0.157 -1.492,0.278 -0.726,0.164 -1.558,0.324 -2.394,0.379 -0.832,0.07 -1.524,-0.035 -2.164,-0.262 -0.786,-0.258 -1.743,-0.664 -2.665,-1.074 -0.832,-0.352 -2.078,-0.879 -2.527,-0.977 -1.273,0.078 -8.203,-1.137 -12.133,-3.73 -2.914,-1.938 -4.582,-4.422 -4.961,-7.27 -0.211,-1.722 0.473,-3.824 1.485,-5.297 -28.578,-7.343 -49.7542,-33.316 -49.7542,-64.172 0,-36.511 29.7072,-66.234 66.2342,-66.234 36.528,0 66.235,29.723 66.235,66.234 0,29.446 -19.293,54.43 -45.883,63.036 1.832,0.144 4.679,0.695 7.758,3.363 0.214,0.019 0.421,0.047 0.621,0.078 1.058,-2.605 3.605,-7.66 7.711,-7.926 0,0 -0.387,2.016 0.871,3.43 0.211,-3.063 4.941,-6.274 7.09,-6.785 0,0 -0.993,2.968 0.234,4.937 0,0 1.484,-3.926 4.242,-4.879 0.695,2.481 2.231,3.239 2.231,3.239 0.789,-2.012 2.093,-3.246 3.695,-3.946 -0.168,-0.168 -0.313,-0.308 -0.484,-0.468 l -1.344,-1.215 1.637,-0.762 c 1.21,-0.566 2.492,-0.836 3.824,-0.836 2.64,0 5.117,1.078 6.918,2.449 0.582,-2.875 2.121,-4.898 3.648,-6.511 l 1.899,-2.082 0.168,2.816 c 0.043,1.078 0.433,2.18 0.863,3.117 0.238,-0.453 0.496,-0.859 0.734,-1.254 0.856,-1.394 1.617,-2.597 1.36,-5.429 l -0.223,-2.418 2.055,1.32 c 0.082,0.047 1.293,0.84 2.293,2.488 2.164,-5.848 6.207,-8.797 6.418,-8.945 l 2.148,-1.543 -0.27,2.648 c -0.113,1.075 -0.121,2.02 -0.097,2.86 2.359,-3.153 5.277,-5.457 7.211,-6.176 1.668,-3.395 3.672,-6.492 5.929,-9.324 -15.656,-9.461 -26.164,-24.957 -30.371,-44.985 -1.257,-5.957 2.36,-7.492 4.305,-8.34 0.309,-0.121 0.602,-0.238 0.813,-0.359 0.832,-0.437 2.417,-0.879 5.39,-1.605 3.449,-0.914 8.078,-2.086 10.348,-3.317 0.336,-1.273 0.773,-2.297 1.183,-3.101 -2.382,-2.762 -8.543,-10.223 -9.765,-15.496 -0.375,-0.219 -1.348,-0.497 -1.903,-0.657 -0.8,-0.234 -1.574,-0.457 -2.171,-0.785 -0.094,-0.051 -0.165,-0.098 -0.25,-0.137 -0.852,-0.453 -2.356,-1.285 -3.594,-2.761 -1.262,-0.649 -2.246,-2.176 -2.453,-2.539 -1.301,-2.129 -0.969,-4.645 -0.223,-6.809 0,0 1.336,1.098 2.133,0.996 1.301,-1.758 3.285,-1.34 4.672,-0.5 0.312,-0.609 0.859,-1.203 1.8,-1.605 0.418,0.867 0.454,0.898 0.864,1.16 1.992,-1.457 4.754,-0.293 5.929,0.105 0.399,-0.761 0.899,-1.152 1.555,-1.449 0.438,0.688 1.485,1.789 1.485,1.789 0.613,-0.086 2.324,-0.691 3.292,-0.203 0.34,-0.844 0.985,-2.008 1.583,-2.574 0,0 1.593,1.422 2.375,1.304 2.164,-0.332 4.359,-0.062 6.214,0.895 3.703,0.285 6.11,2.43 6.493,5.762 0.285,2.343 -0.829,5.074 -1.34,6.191 0.082,1.32 0.23,4.395 -0.258,6.317 0.785,3.293 4.441,13.687 6.332,16.168 1.469,1.929 1.703,4.57 0.637,6.75 -1.047,2.101 -3.125,3.359 -5.539,3.359 -0.426,0 -0.875,-0.031 -1.293,-0.102 -0.465,-0.05 -2.567,-0.308 -4.329,-0.687 -0.66,1.164 -1.722,2.863 -2.988,4.254 0.625,0.41 1.188,0.715 1.672,0.949 1.606,-1.246 4.414,-2.785 6.746,-2.785 0.621,0 1.188,0.105 1.664,0.32 0,0 -0.691,2.719 0.379,3.195 1.332,-1.757 5.168,-3.703 7.16,-2.984 -0.371,1.973 -0.906,5.199 -0.433,5.856 1.59,-1.344 5.168,-2.254 9.886,-1.344 0,0 -3.289,3.222 -3.461,4.957 0.895,-0.406 3.098,-1.113 4.043,-1.352 1.321,1.899 1.282,4.321 1.215,4.594 0.742,0.281 1.242,0.535 1.985,1.113 5.605,-5.054 11.441,-9.238 16.363,-12.386 8.246,-5.258 15.398,-8.637 17.98,-9.801 -0.609,-1.848 -2.023,-3.989 -2.711,-6.371 -0.757,-2.598 -0.964,-6.094 -1.285,-6.743 -2.117,-2.382 -4.191,-6.718 -5.191,-8.816 -0.133,-0.293 -0.25,-0.531 -0.332,-0.723 -0.231,-0.156 -0.82,-0.48 -1.309,-0.742 -1.738,-0.945 -4.383,-2.363 -6.3,-4.679 -1.489,-1.821 -1.708,-3.141 -1.438,-4.934 0.133,-0.918 0.887,-2.488 1.688,-3.02 0.082,-0.671 0.777,-1.761 1.144,-2.144 0,0 0.672,1.641 1.582,1.844 1.359,-0.25 2.223,0.047 3.191,0.3 0.067,-0.433 0.817,-1.449 1.422,-1.613 0,0 0.543,1.727 1.45,1.613 0.699,-0.332 1.894,-0.531 2.949,-0.261 0.238,-0.586 0.82,-1.477 1.152,-1.785 0,0 1.32,2.046 2.285,2.113 1.094,-0.449 2.832,-0.598 3.844,-0.184 0.391,-0.668 0.918,-1.261 1.645,-1.515 0,0 1.07,2.5 2.171,2.347 1.93,-0.996 5.485,-0.09 7.34,1.196 3.477,2.402 3.309,6.679 3.203,8.277 0.215,1.316 1.704,10.766 0.227,17.937 -0.277,1.395 0.223,3.555 0.766,5.817 0.238,1.051 0.511,2.125 0.711,3.262 0.304,1.597 0.496,3.222 0.66,4.824 0.203,1.797 0.394,3.496 0.722,4.644 0.86,2.969 0.614,5.551 -0.699,7.289 -0.93,1.239 -2.328,1.926 -3.941,1.926 -0.52,0 -1.074,-0.074 -1.645,-0.226 -0.336,0.125 -0.64,0.226 -0.91,0.308 -1.379,0.481 -1.988,0.688 -2.391,0.895 0.442,0.984 4.02,3.035 5.145,3.109 -0.106,1.969 -2.844,2.738 -4.203,2.875 0.508,0.813 2.433,0.813 3.273,1.551 -0.34,1.094 -3.414,2.898 -6.742,2.898 -0.144,0 -0.309,-0.019 -0.461,-0.019 1.699,2.25 3.977,7.359 1.168,9.824 -0.586,-0.527 -2.223,-3.746 -4.715,-4.133 1.332,2.043 3.153,5.371 1.485,9.168 0,0 -2.598,-3.109 -5.207,-2.867 -0.469,0.043 -0.856,0.168 -1.164,0.527 -0.055,0.586 -0.254,1.754 -0.758,3.379 11.633,0.531 21.015,5.602 26.562,14.391 6.328,10.078 6.551,23.457 0.61,35.812 -4.145,8.598 -8.356,15.141 -12.438,21.493 -8.156,12.695 -15.215,23.652 -17.223,45.597 -2.078,22.508 1.825,43.414 9.719,52.063 2.649,2.898 5.711,4.375 9.094,4.375 0.746,0 1.531,-0.071 2.316,-0.219 4.387,-0.793 7.289,-2.84 8.883,-6.25 4.879,-10.481 -4.148,-30.383 -6.656,-34.746 -0.219,-0.367 -0.707,-0.606 -1.266,-0.606 -0.304,0 -0.886,0.086 -1.175,0.653 -0.536,0.996 -0.208,3.39 2.316,7.117 0.434,0.629 0.41,1.476 -0.055,2.094 -0.347,0.457 -0.875,0.703 -1.429,0.703 -0.18,0 -0.372,-0.035 -0.563,-0.082 -3.289,-1.09 -5.551,-3.074 -6.719,-5.887 -1.418,-3.398 -0.933,-7.559 0.18,-10.863 -3.328,-0.254 -5.207,-1.813 -6.238,-3.168 -1.496,-1.965 -2.035,-4.633 -1.387,-6.953 0.199,-0.723 0.82,-1.25 1.57,-1.321 h 0.157 c 0.175,0 0.324,0.016 0.496,0.071 -1.34,-1.563 -1.953,-3.661 -2.473,-5.391 -0.785,-2.676 -1.305,-3.941 -2.527,-4.164 -0.621,-0.086 -1.141,-0.5 -1.364,-1.082 -0.234,-0.586 -0.172,-1.234 0.203,-1.734 1.34,-1.832 3.352,-2.727 5.106,-2.997 -0.426,-2.66 -0.078,-5 1,-6.734 0.961,-1.543 2.461,-2.566 4.34,-2.965 -1.403,-0.816 -2.262,-2.984 -1.985,-5.199 0.164,-1.316 1.219,-5.656 8.024,-6.234 0.351,-0.02 0.695,-0.039 1.035,-0.039 2.777,0 5.148,0.996 7.023,2.949 3.129,3.293 4.028,8.492 4.258,11.527 0.653,-0.801 1.235,-2.176 1.645,-3.105 l 0.094,-0.239 c 0.293,-0.648 0.929,-1.086 1.628,-1.086 h 0.016 c 0.707,0 1.348,0.399 1.645,1.051 1.761,3.824 1.976,7.321 0.64,10.344"
         style="fill:#000000;fill-opacity:1;fill-rule:nonzero;stroke:none"
         id="path42" />
      <path
         d="m 132.383,225.574 c 1.816,-0.965 3.359,-1.781 4.39,-2.336 9.141,2.782 22.079,11.582 24.004,12.907 0.75,4.714 1.301,22.746 1.325,27.976 -2.903,2.766 -17.536,10.309 -21.571,12.039 -10.375,-1.16 -22.433,-8.347 -27.773,-12.746 -1.699,-5.262 -1.797,-20.101 -0.547,-25.586 2.402,-2.992 13.496,-8.789 20.172,-12.254"
         style="fill:#ffffff;fill-opacity:1;fill-rule:nonzero;stroke:none"
         id="path44" />
      <path
         d="m 182.559,217.285 c 9.75,1.969 13.851,3.188 20.25,6.094 2.148,6.684 2,13.004 1.882,18.121 -0.019,0.984 -0.039,1.906 -0.039,2.77 -2.132,4.585 -6.14,12.976 -20.683,25.714 -8.164,-1.742 -16.352,-5.398 -18.117,-6.238 -0.305,-2.976 -2.219,-21.91 -1.372,-28.527 0.993,-1.317 8.75,-11.203 18.079,-17.934"
         style="fill:#ffffff;fill-opacity:1;fill-rule:nonzero;stroke:none"
         id="path46" />
      <path
         d="m 183.32,213.754 c -3.949,-10.441 -10.39,-21.527 -11.597,-23.566 0.84,-1.715 4.433,-9.266 5.507,-14.829 6.133,0.864 14.125,3.161 19.579,5.168 2.886,3.965 9.578,17.164 11.187,23.403 -0.641,4.836 -2.308,10.445 -4.598,15.461 -5.769,-2.325 -17.761,-5.114 -20.078,-5.637"
         style="fill:#ffffff;fill-opacity:1;fill-rule:nonzero;stroke:none"
         id="path48" />
      <path
         d="m 168.145,188.063 c -0.954,-0.137 -2.024,-0.211 -3.235,-0.211 -8.609,0 -21.398,3.472 -23.863,4.144 -2.192,-2.156 -8.719,-8.09 -17.363,-11.969 -0.649,-4.582 -0.207,-11.761 2.3,-18.019 6.821,-4.024 16.559,-4.625 21.793,-4.625 1.203,0 2.411,0.027 3.575,0.101 8,3.844 17.648,11.481 21.824,16.368 -0.117,3.929 -2.981,9.933 -4.715,13.543 l -0.316,0.668"
         style="fill:#ffffff;fill-opacity:1;fill-rule:nonzero;stroke:none"
         id="path50" />
      <path
         d="m 138.824,194.234 c -1.992,4.106 -3.742,20.954 -4.004,26.149 -6.07,2.082 -19.765,10.238 -24.605,13.789 -4.449,-1.098 -15.3087,-8.082 -20.1252,-11.313 -0.5195,-9.39 7.004,-30.066 7.9766,-32.714 4.0976,-1.743 17.0626,-6.153 23.3556,-6.926 5.613,1.144 15.016,7.957 17.402,11.015"
         style="fill:#ffffff;fill-opacity:1;fill-rule:nonzero;stroke:none"
         id="path52" />
      <path
         d="M 85.4414,222.867 C 84.8516,202.094 93.75,188.43 93.75,188.43 l 1.7852,0.996 c -7.5118,14.656 -8.1289,33.844 -8.1289,33.844 l -1.9649,-0.403"
         style="fill:#ffffff;fill-opacity:1;fill-rule:nonzero;stroke:none"
         id="path54" />
      <path
         d="m 138.367,278.313 c 2.031,0.378 3.074,0.363 3.074,0.363 l -0.679,3.062 c -0.59,-0.179 -1.246,-0.312 -2.067,-0.445 -0.32,-0.563 -0.457,-1.813 -0.328,-2.98"
         style="fill:#ffffff;fill-opacity:1;fill-rule:nonzero;stroke:none"
         id="path56" />
      <path
         d="m 133.375,280.238 c -17.945,-5.664 -26.363,-14.23 -26.363,-14.23 l 3.16,-0.988 c 12.293,8.347 21.129,11.589 26.211,12.851 -1.164,0.473 -2.18,1.246 -3.008,2.367"
         style="fill:#ffffff;fill-opacity:1;fill-rule:nonzero;stroke:none"
         id="path58" />
      <path
         d="m 265.414,230.293 c -5.723,2.859 -10.57,6.363 -14.633,10.535 -22.785,-13.863 -31.367,-42.82 -30.629,-44.465 0.75,-1.535 2.813,-3.175 4.774,-3.175 9.043,0 16.566,-4.477 16.644,-4.504 0.09,-0.075 0.145,-0.184 0.145,-0.282 -0.004,-0.101 -0.067,-0.211 -0.16,-0.257 -0.032,-0.02 -0.996,-0.594 -0.434,-2.293 0.328,-1.004 1.356,-1.582 2.102,-2.02 0.57,-0.336 0.961,-0.562 0.961,-0.902 0,-0.211 -0.118,-0.367 -0.332,-0.496 -4.782,-2.871 -9.907,-13.317 -11.059,-15.711 0.699,0.011 3.121,-0.692 2.59,-1.95 -0.25,0.055 -0.621,0.11 -1.028,0.11 -0.64,0 -2.277,-0.082 -4,-0.942 -1.308,-0.64 -2.128,-1.539 -2.558,-2.324 0.086,0.063 0.191,0.071 0.285,0.113 0.996,0.204 1.906,-0.07 2.445,-0.75 0.493,-0.609 0.649,-1.523 0.411,-2.535 -0.254,-1.215 -1.083,-1.742 -1.973,-2.308 -0.117,-0.09 -0.231,-0.16 -0.344,-0.231 0.488,-0.258 1.406,-0.636 2.551,-0.636 0.969,0 2.723,0.535 2.723,0.535 -0.36,1.336 -0.282,3.105 0.105,3.89 0.098,0.571 1.102,5.75 5.648,6.282 1.215,0.136 2.161,-0.856 1.446,-0.856 -2.418,0 -4.285,-1.719 -4.946,-3.535 0.266,0.074 0.582,0.102 0.899,0.102 1.316,0 1.902,-0.786 2.141,-1.25 0.375,-0.805 0.343,-1.782 -0.086,-2.368 -0.293,-0.359 -0.649,-0.769 -1.043,-1.207 -0.227,-0.238 -0.454,-0.5 -0.672,-0.75 0.351,-0.066 0.902,-0.168 1.515,-0.168 0.692,0 1.559,0.149 2,0.371 -0.519,6.649 5.075,10.161 6.321,8.602 0.293,-0.367 -0.996,0.43 -2.946,-1.996 -1.175,-1.324 -2.132,-3.258 -1.937,-4.563 0.668,0.844 1.707,1.536 2.703,1.563 h 0.117 c 1.149,0 1.742,-0.465 2.012,-0.875 0.426,-0.508 0.516,-1.266 0.262,-2.094 -0.176,-0.676 -0.914,-1.332 -1.743,-2.07 0.168,-0.02 0.426,-0.047 0.688,-0.047 0.766,0 1.508,0.199 2.16,0.625 1.766,1.082 2.414,2.215 2.414,2.215 0.078,0.105 0.16,0.152 0.258,0.152 0.121,0 0.215,-0.047 0.277,-0.137 0.043,-0.089 0.336,-0.597 0.313,-1.093 1.476,0.355 2.242,1.23 2.519,2.75 0.36,2.007 -1.437,5.636 -1.449,5.668 -0.023,0.05 -0.039,0.105 -0.039,0.14 0.016,0.071 0.016,1.387 0.106,2.074 0.058,0.446 -0.375,2.872 -0.676,4.29 0,0.043 0,0.125 0.019,0.156 1.348,4.594 2.074,6.484 2.606,7.855 0.39,0.996 0.672,1.731 1.008,3.047 0.468,1.824 1.082,2.805 1.785,3.914 0.402,0.621 0.8,1.274 1.25,2.145 1.203,2.426 1.242,5.308 0.058,6.043 -0.519,0.332 -1.593,0.488 -2.875,0.488 -1.468,0 -2.89,-0.227 -3.316,-0.559 -0.793,-0.632 -0.906,-1.078 -0.609,-2.32 0.121,-0.516 0.3,-0.859 0.433,-1.133 0.234,-0.441 0.43,-0.804 0.176,-1.383 -0.137,-0.269 -0.336,-0.324 -0.43,-0.324 -0.426,0 -0.726,0.567 -1.328,1.707 -0.269,0.524 -0.566,1.071 -0.809,1.407 -0.214,0.304 -0.421,0.792 -0.726,1.5 -0.856,1.992 -2.281,5.296 -5.078,6.898 -1.086,0.617 -1.461,0.891 -1.442,1.262 0.024,0.351 0.391,0.48 0.856,0.664 0.207,0.078 0.562,0.218 0.996,0.367 1.348,0.476 2.449,1.734 1.414,1.543 -1.465,-0.262 -3.125,-0.555 -4.789,-0.555 -1.328,0 -2.438,0.199 -3.379,0.578 -0.848,0.36 -1.269,0.575 -1.211,0.973 0.063,0.469 0.727,0.551 2.684,0.789 2.758,0.348 6.672,0.52 10.933,2.781 0.528,-3.242 2.7,-6.316 5.356,-6.683 -0.098,1.183 -0.156,5.129 0.699,5.734 0.066,0.078 0.199,0.094 0.289,0.043 0.039,-0.019 0.078,-0.043 0.117,-0.055 0.215,-0.136 0.535,-0.355 0.965,-0.703 1.102,-0.82 2.887,-2.176 5.207,-3.211 -0.808,1.836 -1.922,5.856 0.527,8.52 0.036,0.066 0.137,0.117 0.223,0.094 0.078,0 0.156,-0.028 0.231,-0.106 0.269,-0.336 0.55,-0.832 0.875,-1.418 0.996,-1.816 2.343,-4.254 5.433,-4.43 -1.316,1.719 -2.211,3.907 -0.32,7 0.055,0.086 0.168,0.153 0.265,0.153 0.11,-0.031 0.219,-0.082 0.258,-0.184 0.125,-0.289 2.282,-2.457 4.032,-2.91 0.75,1.531 1.378,3.699 1.339,6.02 -3.918,3.925 -7.586,8.269 -10.57,13.066"
         style="fill:#fff000;fill-opacity:1;fill-rule:nonzero;stroke:none"
         id="path60" />
      <path
         d="m 225.805,160.406 c -0.176,-0.773 -0.703,-2.676 -0.739,-3.543 l -0.027,-0.16 c -0.16,-0.945 -0.531,-1.754 -1.355,-1.84 -1.707,-0.222 -2.2,1.66 -2.2,1.66 l 0.004,0.047 c 0.293,0.172 0.617,0.317 0.996,0.438 1.485,0.402 2.411,2.109 2.262,3.258 -0.105,0.804 -0.586,1.082 -1.348,1.097 -0.07,0 0.497,1.082 1.45,1.856 1.047,0.851 2.711,1.371 3.148,0.976 0.231,-0.203 -1.652,-1.543 -2.191,-3.789"
         style="fill:#fff000;fill-opacity:1;fill-rule:nonzero;stroke:none"
         id="path62" />
      <path
         d="m 233.531,195.191 c 0.938,0.539 2.754,1.852 3.672,2.645 0.856,0.75 2.774,2.832 1.277,-0.363 -0.468,-1.047 1.145,-1.676 1.958,-2.203 0.945,-0.598 1.792,-1.293 2.66,-1.95 0.523,-0.39 2.547,-1.211 2.621,-1.832 -0.563,-0.277 -2.106,0.364 -2.789,0.481 -1.207,0.187 -2.832,1.023 -3.922,1.578 -1.922,1.023 -6.336,1.164 -5.477,1.644"
         style="fill:#000000;fill-opacity:1;fill-rule:nonzero;stroke:none"
         id="path64" />
      <path
         d="m 250.984,184.352 c 0.989,0.57 3.918,2.078 2.477,-3.125 -0.395,-1.403 -0.613,-5.743 -3.246,-6.368 1.168,1.895 2.012,5 1.426,7.868 -0.649,0.011 -1.176,-0.176 -1.786,-0.207 0,0 0.141,1.269 1.129,1.832"
         style="fill:#000000;fill-opacity:1;fill-rule:nonzero;stroke:none"
         id="path66" />
      <path
         d="m 222.789,160.133 c -0.086,0.305 -0.328,0.387 -0.664,0.34 -0.277,-0.067 -1.852,-1.547 -1.348,-2.489 0.239,-0.445 2.137,1.735 2.012,2.149"
         style="fill:#ffffff;fill-opacity:1;fill-rule:nonzero;stroke:none"
         id="path68" />
      <path
         d="m 226.871,157.574 c -0.207,0.117 -0.293,1.453 0.449,2.43 0.285,0.402 0.961,0.344 1.266,0.094 0.148,-0.149 0.309,-0.657 0.09,-1.071 -0.168,-0.339 -1.121,-1.808 -1.805,-1.453"
         style="fill:#ffffff;fill-opacity:1;fill-rule:nonzero;stroke:none"
         id="path70" />
      <path
         d="m 235.348,157.434 c -0.371,0.14 -0.551,1.515 0.011,2.261 0.379,0.516 0.739,0.664 1.422,0.446 0.414,-0.125 0.469,-0.871 0.078,-1.313 -0.535,-0.621 -1.058,-1.562 -1.511,-1.394"
         style="fill:#ffffff;fill-opacity:1;fill-rule:nonzero;stroke:none"
         id="path72" />
      <path
         d="m 242.934,155.648 c -0.414,0.282 -0.434,0.665 -0.321,1.469 0.082,0.613 0.535,1.211 1.434,1.336 0.492,0.047 0.98,-0.316 0.957,-0.723 -0.02,-0.488 -1.805,-2.269 -2.07,-2.082"
         style="fill:#ffffff;fill-opacity:1;fill-rule:nonzero;stroke:none"
         id="path74" />
      <path
         d="m 299.363,156.742 c 0.582,0.809 1.227,1.516 1.532,1.973 0.5,0.848 0.714,2.668 -1.446,3.195 -0.832,0.199 -1.812,-0.851 -2.519,-2.176 -0.078,0.399 -0.075,0.907 0.027,1.325 0.707,2.812 6.356,6.07 7.563,5.214 0.289,-0.21 -2.547,-2.511 -2.778,-5.566 -0.176,-2.211 0.762,-3.426 0.762,-3.426 0,0 -1.844,-0.972 -3.141,-0.539"
         style="fill:#fff000;fill-opacity:1;fill-rule:nonzero;stroke:none"
         id="path76" />
      <path
         d="m 299.293,159.496 c -0.215,-0.242 -0.836,-1.41 -1.105,-1.156 -0.801,0.746 0.32,2.351 0.742,2.258 0.734,-0.176 0.574,-0.864 0.363,-1.102"
         style="fill:#ffffff;fill-opacity:1;fill-rule:nonzero;stroke:none"
         id="path78" />
      <path
         d="m 305.082,161.641 c -1.922,0.289 -1.769,-2.801 -1.352,-2.735 0.407,0.074 1.114,0.801 1.543,1.336 0.391,0.563 0.555,1.285 -0.191,1.399"
         style="fill:#ffffff;fill-opacity:1;fill-rule:nonzero;stroke:none"
         id="path80" />
      <path
         d="m 312.027,160.859 c 0.137,0.586 0.024,1.09 -0.496,1.211 -1.711,0.43 -1.734,-2.933 -1.375,-3.121 0.379,-0.176 1.668,1.242 1.871,1.91"
         style="fill:#ffffff;fill-opacity:1;fill-rule:nonzero;stroke:none"
         id="path82" />
      <path
         d="m 318.855,160.941 c 0.2,0.5 -0.171,1.125 -0.894,1.164 -1.539,0.047 -1.453,-3.003 -0.512,-3.328 0.364,-0.14 1.11,1.453 1.406,2.164"
         style="fill:#ffffff;fill-opacity:1;fill-rule:nonzero;stroke:none"
         id="path84" />
      <path
         d="m 136.508,285.016 c -0.633,-1.301 -0.809,-4.407 -1.637,-3.653 -0.769,0.723 -1.508,2.196 -1.473,3.864 0.047,3.582 4.184,2.074 3.11,-0.211"
         style="fill:#ffffff;fill-opacity:1;fill-rule:nonzero;stroke:none"
         id="path86" />
      <path
         d="m 148.457,283.129 c 1.309,2.184 -1.715,2.91 -2.582,1.312 -0.762,-1.351 -0.25,-3.613 0.527,-4.242 1.118,-0.926 1.118,1.36 2.055,2.93"
         style="fill:#ffffff;fill-opacity:1;fill-rule:nonzero;stroke:none"
         id="path88" />
      <path
         d="m 160.02,284.07 c 0.238,0.379 0.152,2.063 -1.934,1.243 -2.234,-0.899 -1.02,-4.278 -0.172,-4.879 0.965,-0.684 0.633,1.3 2.106,3.636"
         style="fill:#ffffff;fill-opacity:1;fill-rule:nonzero;stroke:none"
         id="path90" />
      <path
         d="m 136.055,337.203 c 0.332,1.375 1.754,3.86 4.32,4.543 0,0 2.023,-3.801 3.145,-4.519 0.652,-0.426 0.718,-2.789 -0.082,-4.547 -0.872,1.23 -1.629,2.754 -2.012,3.961 -0.453,1.371 -4.547,1.062 -3.43,-2.942 0.434,-1.515 1.359,-2.414 2.434,-2.918 -0.094,0.039 -0.2,0.055 -0.313,0.074 -3.851,1.063 -4.379,4.942 -4.062,6.348"
         style="fill:#fff000;fill-opacity:1;fill-rule:nonzero;stroke:none"
         id="path92" />
      <path
         d="m 134.965,324.215 c -1.758,3.656 2.996,4.344 3.273,3.14 0.477,-1.972 1.313,-3.289 2.36,-4.304 1.257,1.613 -0.371,5.215 -0.407,6.379 -1.789,0.59 -4.394,3.281 -4.394,3.281 -4.043,-0.293 -3.449,-7.406 -1.934,-9.082 1.004,-1.109 2.129,-1.691 3.532,-1.676 -1.387,0.496 -2.079,1.524 -2.43,2.262"
         style="fill:#fff000;fill-opacity:1;fill-rule:nonzero;stroke:none"
         id="path94" />
      <path
         d="m 139.039,316.859 c 0.297,1.114 2.402,1.954 3.418,0.719 0.434,-0.547 1.082,-1.41 1.856,-2.164 1.609,2.492 -1.36,5.383 -2.848,6.145 -1.121,-1.016 -4.027,-1.289 -5.817,-0.719 0.204,-0.953 0.79,-3.809 2.375,-5.668 0.477,-0.598 1.223,-1.074 2.051,-0.836 -0.82,0.855 -1.187,1.894 -1.035,2.523"
         style="fill:#fff000;fill-opacity:1;fill-rule:nonzero;stroke:none"
         id="path96" />
      <path
         d="m 141.758,316.223 c 0.371,-0.469 1.191,-1.375 1.086,-1.922 -0.215,-1.164 -2.781,0.754 -2.574,1.453 0.121,0.535 1.019,1.047 1.488,0.469"
         style="fill:#ffffff;fill-opacity:1;fill-rule:nonzero;stroke:none"
         id="path98" />
      <path
         d="m 136.016,323.547 c 0.484,-0.551 1.804,-1.359 2.152,-0.617 0.352,0.758 -0.449,1.062 -1.141,2.265 -0.527,0.922 -1.855,-0.621 -1.011,-1.648"
         style="fill:#ffffff;fill-opacity:1;fill-rule:nonzero;stroke:none"
         id="path100" />
      <path
         d="m 140.621,334.117 c -0.277,0.633 -2.539,0.488 -1.391,-1.172 1.196,-1.695 2.336,-1.793 2.403,-1.031 0.051,0.387 -0.516,1.066 -1.012,2.203"
         style="fill:#ffffff;fill-opacity:1;fill-rule:nonzero;stroke:none"
         id="path102" />
      <path
         d="m 145.113,340.102 c -0.535,-0.122 -0.062,-2.305 1.375,-2.832 0.668,-0.223 0,0.82 0.09,1.48 0.164,0.883 0,1.625 -1.465,1.352"
         style="fill:#ffffff;fill-opacity:1;fill-rule:nonzero;stroke:none"
         id="path104" />
      <path
         d="m 158.48,340.859 c 0.125,0.493 -1.125,1.934 -1.445,0.774 -0.476,-1.75 0.606,-2.856 1.094,-2.856 0.5,0 0.269,1.145 0.351,2.082"
         style="fill:#ffffff;fill-opacity:1;fill-rule:nonzero;stroke:none"
         id="path106" />
      <path
         d="m 217.008,366.742 0.812,-2.433 c 0,0 1.707,-1.301 1.883,-1.395 0.156,-0.086 1.367,0.82 1.367,0.82 l -1.175,2.274 -2.887,0.734"
         style="fill:#000000;fill-opacity:1;fill-rule:nonzero;stroke:none"
         id="path108" />
      <path
         d="m 115.816,390.805 c -1.05,7.539 1.774,15.574 6.954,19.679 4.441,3.547 12.507,4.598 16.394,-0.273 -6.703,2.285 -19.824,-5.898 -10.883,-18.215 -1.074,-5.281 -0.093,-12.125 2.289,-16.101 -5.367,0.793 -13.613,6.668 -14.754,14.91"
         style="fill:#fff000;fill-opacity:1;fill-rule:nonzero;stroke:none"
         id="path110" />
      <path
         d="m 141.152,354.719 c -10.16,1.281 -8.281,9.367 -7.207,9.554 0,0 0.496,-3.343 5.035,-3.14 3.161,0.14 3.77,2.543 4.168,3.828 2.821,-4.414 5.27,-5.715 9.086,-7.633 -1.242,-1.238 -4.121,-3.476 -11.082,-2.609"
         style="fill:#fff000;fill-opacity:1;fill-rule:nonzero;stroke:none"
         id="path112" />
      <path
         d="m 166.813,403.508 c -2.133,8.539 -11.731,10.015 -13.204,4.937 0,0 3.446,1.266 5.125,-0.476 2.793,-2.903 2.082,-7.344 -1.55,-12.11 5.078,3.426 7.66,5.797 9.629,7.649"
         style="fill:#fff000;fill-opacity:1;fill-rule:nonzero;stroke:none"
         id="path114" />
      <path
         d="m 130.867,390.805 c 3.278,11.945 13.395,11.207 14.758,9.234 -2.457,0.055 -5.398,0.234 -7.285,-3.976 -3.168,-7.172 2.48,-12.262 4.89,-12.973 -2.468,-4.274 -2.699,-10.36 -0.894,-15.11 -10.387,2.926 -13.359,16.04 -11.469,22.825"
         style="fill:#fff000;fill-opacity:1;fill-rule:nonzero;stroke:none"
         id="path116" />
      <path
         d="m 180.645,418.844 c -2.086,12.441 -10.856,12.605 -13.497,12.605 -4.046,0 -7.796,-1.847 -9.39,-4.418 1.25,0.492 2.801,0.84 4.508,0.84 3.125,0 10.468,-1.316 10.808,-13.574 0.262,-9.223 -7.465,-14.602 -14.926,-19.742 -9.121,-6.309 -16.875,-12.969 -13.867,-24.418 2.844,-10.805 14.469,-13.582 21.028,-12.903 -12.418,12.704 0.187,29.016 8.601,29.645 6.555,12.203 8.203,23.059 6.735,31.965"
         style="fill:#fff000;fill-opacity:1;fill-rule:nonzero;stroke:none"
         id="path118" />
      <path
         d="m 209.805,377.445 c 0,0 0.996,-2.625 3.254,-3.105 -0.395,1.019 0.07,3.867 0.07,3.867 0,0 -0.856,-0.762 -3.324,-0.762"
         style="fill:#ffffff;fill-opacity:1;fill-rule:nonzero;stroke:none"
         id="path120" />
      <path
         d="m 216.324,364.77 c 0,0 -0.461,-2.469 0.406,-4.29 0.875,1.458 1.891,1.711 1.891,1.711 0,0 -1.402,1.008 -2.297,2.579"
         style="fill:#ffffff;fill-opacity:1;fill-rule:nonzero;stroke:none"
         id="path122" />
      <path
         d="m 237.18,378.164 c 1.726,-0.644 3.175,-0.973 4.422,-0.973 1.793,0 2.902,0.692 4.089,1.407 1.028,0.636 2.106,1.265 3.641,1.515 0.184,0.555 0.375,1.11 0.539,1.621 0.621,1.942 1.168,3.672 2.215,5.446 -0.887,-0.211 -1.664,0.988 -1.773,1.425 -0.489,1.829 1.75,-0.089 1.582,3.426 -0.063,1.77 2.808,1.297 2.785,2.403 0,0.035 0,0.171 -0.239,0.476 -0.503,0.641 -1.16,0.93 -1.976,0.93 -1.777,0 -3.789,-1.477 -4.031,-1.723 -0.121,-0.203 -0.364,-0.254 -0.563,-0.129 -0.219,0.117 -0.281,0.375 -0.183,0.598 1.496,3.109 -1.532,7.035 -4.243,8.633 -9.261,-0.196 -16.644,-4.528 -19.867,-7.25 1.387,-0.289 2.922,-0.727 3.602,-0.934 0.379,0.578 1.336,1.613 3.672,1.801 1.898,0.133 3.441,-0.289 5.043,-0.738 0.937,-0.274 1.898,-0.532 2.968,-0.707 0.16,-0.02 0.301,-0.133 0.356,-0.297 0.051,-0.153 0.011,-0.321 -0.098,-0.442 l -0.051,-0.066 c -1.254,-1.387 -2.211,-2.434 -3.539,-2.844 -1.547,-0.515 -2.261,0.528 -3.496,0.442 -0.25,-0.032 1.578,-1.239 1.305,-2.055 -0.035,-0.117 -0.141,-0.227 -0.277,-0.274 -0.149,-0.05 -0.286,-0.035 -0.407,0.047 -3.769,2.61 -7.754,3.926 -11.804,3.926 -3.895,0 -6.825,-1.234 -8.075,-1.797 0.27,-0.308 1.618,-1.187 1.465,-2.554 -0.105,-0.942 -2.66,1.937 -6.582,0.89 -0.148,-2.594 -1.305,-4.105 -1.902,-4.722 -0.207,-0.2 -2.043,0.687 -2.598,1.019 0.125,-0.434 0.918,-1.629 1.531,-1.891 0.118,-0.054 0.188,-0.187 0.188,-0.316 0.226,-1.703 1.902,-5.019 4.945,-5.262 2.754,-0.218 4.309,1.43 5.68,2.86 0.512,0.566 2.363,3.398 3.051,2.965 0.269,-0.18 0.066,-1.997 -1.02,-2.762 1.969,0.219 3.766,0.32 5.356,0.32 7.445,0 9.621,-2.32 10.859,-4.828 0.063,-0.129 0.051,-0.316 -0.035,-0.453 -0.11,-0.145 -0.285,-0.211 -0.445,-0.18 -0.168,0.035 -0.34,0.063 -0.497,0.094 -0.312,0.051 -0.593,0.098 -0.859,0.133 0.102,-3.739 -2.66,-10.313 -5.879,-13.914 -1.683,-1.848 -3.414,-2.848 -4.965,-2.848 -0.461,0 -0.914,0.106 -1.347,0.273 -0.039,0 -0.075,0.012 -0.121,0.012 -0.137,0 -0.309,-0.097 -0.497,-0.285 -0.449,-0.441 -0.738,-1.191 -0.738,-1.352 0.446,-2.644 3.492,-4.464 4.793,-5.093 0.11,0.82 0.453,2.332 1.547,3.855 1.188,1.637 2.981,2.047 4.027,2.129 -0.25,5.059 1.168,5.918 1.465,6.063 0.137,0.043 0.27,0.043 0.391,-0.028 0.015,-0.008 1.015,-0.508 2.23,-0.508 2.141,0 3.633,1.485 4.43,4.442 0.914,3.445 0.484,4.496 -0.059,5.801 -0.187,0.496 -0.421,1.043 -0.589,1.754 -0.055,0.164 0.003,0.339 0.136,0.437 0.121,0.102 0.293,0.16 0.442,0.082"
         style="fill:#fff000;fill-opacity:1;fill-rule:nonzero;stroke:none"
         id="path124" />
      <path
         d="m 220.41,279.293 c 0.121,0.062 0.258,0.082 0.387,0.082 0.187,0 0.359,-0.051 0.504,-0.16 0.277,-0.172 0.422,-0.481 0.398,-0.793 -0.234,-3.301 1.446,-6.977 2.696,-8.965 0.125,1.234 -0.094,2.813 -0.372,4.648 -0.191,1.29 -0.394,2.747 -0.5,4.309 -0.335,4.457 0.497,8.066 1.168,10.977 0.618,2.757 1.086,4.754 0.176,5.941 h -0.012 -0.093 c -1.34,0 -5.426,-3.121 -7.207,-8.277 -1.696,-4.883 -1.125,-9.516 -0.407,-12.45 0.571,1.836 1.551,3.817 3.262,4.688"
         style="fill:#fff000;fill-opacity:1;fill-rule:nonzero;stroke:none"
         id="path126" />
      <path
         d="m 228.164,305.875 c 0.133,0.945 -0.027,1.824 -0.484,2.633 -2.825,-3.492 -6.102,-5.649 -8.809,-7.399 -1.894,-1.25 -3.535,-2.32 -4.199,-3.398 -2.274,-3.707 -2.399,-6.606 -2.547,-9.945 -0.156,-3.661 -0.348,-7.77 -3.672,-13.352 1.231,0.16 3.078,0.801 5.008,3.024 -0.43,3.085 -1.156,14.234 9.312,21.167 1.957,1.29 5,4.282 5.391,7.27"
         style="fill:#fff000;fill-opacity:1;fill-rule:nonzero;stroke:none"
         id="path128" />
      <path
         d="m 223.047,312.938 c -2.281,-1.278 -5.156,-1.93 -6.606,-2.192 0.122,-1.422 -0.074,-4.098 -2.695,-6.941 0.117,-0.028 0.223,-0.028 0.348,-0.028 2.508,0 6.605,2.258 8.355,5.289 0.781,1.372 0.973,2.68 0.598,3.872"
         style="fill:#fff000;fill-opacity:1;fill-rule:nonzero;stroke:none"
         id="path130" />
      <path
         d="m 236.578,337.113 c 0.5,0.559 1.336,1.446 1.434,1.813 -0.106,0.094 -0.496,0.277 -1.551,0.394 -0.137,0.016 -0.293,0.016 -0.449,0.016 -4.797,0 -12.922,-6.09 -14.004,-10.492 -0.43,-1.789 0.633,-2.571 2.457,-3.676 1.265,-0.777 2.598,-1.578 2.492,-3.098 -0.023,-0.277 -0.187,-0.527 -0.437,-0.687 -0.141,-0.09 -0.297,-0.117 -0.457,-0.117 -0.125,0 -0.258,0.019 -0.364,0.05 -1.933,0.836 -3.722,1.235 -5.672,1.235 -2.824,0 -5.945,-0.817 -9.789,-2.071 -4.433,-1.449 -6.816,-6.332 -7.867,-9.281 4.266,2.567 8.172,2.906 11.981,3.258 4.796,0.41 9.347,0.816 14.441,5.777 0.344,3.653 5,13.227 6.379,15.235 0.387,0.547 0.914,1.097 1.406,1.644"
         style="fill:#fff000;fill-opacity:1;fill-rule:nonzero;stroke:none"
         id="path132" />
      <path
         d="m 210.043,324.426 c 0.062,0.008 0.078,0.031 0.109,0.129 0.086,0.383 -0.175,1.152 -0.519,1.875 -1.192,-1.153 -3.465,-2.969 -5.828,-2.969 -0.68,0 -1.309,0.137 -1.887,0.418 0.23,-1.734 0.633,-3.57 1.129,-4.621 2.285,2.195 4.644,3.926 6.996,5.168"
         style="fill:#fff000;fill-opacity:1;fill-rule:nonzero;stroke:none"
         id="path134" />
      <path
         d="m 210.543,337.711 c -0.074,0.125 -0.328,0.492 -1.117,0.492 -1.129,0 -2.449,-0.66 -3.281,-1.262 1.144,-0.523 2.738,-1.492 3.332,-2.964 0.07,-0.133 0.136,-0.325 0.23,-0.508 0.859,-2.219 2.895,-7.364 7.758,-7.364 h 0.086 c -0.086,1.438 -0.039,3.36 0.984,4.958 -2.633,0.789 -5.597,3.238 -7.992,6.648"
         style="fill:#fff000;fill-opacity:1;fill-rule:nonzero;stroke:none"
         id="path136" />
      <path
         d="m 267.188,365.281 c -0.7,-0.062 -1.368,-0.101 -1.993,-0.101 -6.996,0 -9.797,3.785 -12.031,6.832 -0.844,1.156 -1.644,2.23 -2.555,2.949 -0.511,0.414 -1.074,0.602 -1.785,0.602 -0.832,0 -1.758,-0.247 -2.754,-0.497 -1.199,-0.332 -2.586,-0.656 -4.05,-0.656 -0.528,0 -1.059,0.02 -1.559,0.121 0.328,-2.105 0.238,-5.25 -0.758,-7.734 -1.223,-2.984 -3.582,-4.906 -6.019,-4.906 -0.621,0 -1.239,0.121 -1.825,0.359 0.036,-0.668 0.106,-1.395 0.176,-2.16 0.309,-3.039 0.668,-6.774 -0.883,-10.539 -2.109,-5.094 -6.019,-8.129 -10.425,-8.129 -0.672,0 -1.368,0.058 -2.071,0.211 -3.461,0.687 -5.375,2.328 -6.449,3.89 0.113,-5.218 4.203,-9.058 8.066,-11.546 0.711,0.304 1.54,1.043 2.532,1.921 2.691,2.399 6.761,6 15.386,7.825 0.43,0.078 0.797,0.433 1.106,1.004 1.164,2.132 0.973,6.628 0.043,8.941 -0.527,1.309 0.019,3.574 0.133,4 0.082,0.398 0.472,0.668 0.859,0.668 0.414,0 0.773,-0.27 0.879,-0.668 0.234,-0.883 0.793,-1.852 1.391,-2.883 1.761,-3.051 4.183,-7.234 0.117,-13.269 -5.434,-8.086 -11.004,-17.649 -11.004,-27.246 0,-5.211 1.367,-9.469 2.445,-12.868 1.078,-3.312 1.91,-5.941 1.305,-8.355 -0.078,-0.328 -0.324,-0.582 -0.656,-0.652 -0.063,-0.016 -0.153,-0.016 -0.215,-0.016 -0.254,0 -0.492,0.086 -0.656,0.273 -0.508,0.547 -1.5,1.215 -2.555,1.215 -1.871,0 -3.156,-2.179 -3.61,-6.14 -0.863,-7.508 -1.628,-14.106 3.571,-24.5 0.633,3.027 1.738,5.539 2.734,7.843 0.801,1.801 1.473,3.368 1.781,4.805 1.258,6.121 1.055,10.805 0.887,14.953 -0.258,6.082 -0.457,11.305 3.692,18.758 0.121,3.543 0.808,6.082 1.421,8.336 0.469,1.695 0.899,3.293 1.032,5.109 0.07,1.016 -0.004,2.11 -0.086,3.379 -0.305,4.11 -0.688,9.746 3.804,17.844 3.008,5.41 2.633,11.461 1.789,15.551 -1.019,5.09 -3.109,8.879 -4.234,9.957 -0.258,0.234 -0.351,0.586 -0.238,0.929 0.094,0.325 0.39,0.582 0.738,0.61 0.16,0.015 0.32,0.015 0.457,0.015 3.133,0 5.145,-3.664 6.711,-7.269 0.801,-1.844 3.895,-5.934 7.82,-5.934 0.258,0 0.52,0.024 0.762,0.051 4.715,0.641 6.188,4.106 6.774,7.117"
         style="fill:#fff000;fill-opacity:1;fill-rule:nonzero;stroke:none"
         id="path138" />
      <path
         d="m 256.23,381.563 c 0.61,-0.375 1.348,-0.563 2.278,-0.563 2.308,0 5.43,1.207 8.738,2.453 4.192,1.613 8.945,3.438 13.457,3.438 h 0.172 c 5.918,-0.078 8.34,-0.899 9.32,-1.641 0.032,0.574 -0.121,1.43 -0.84,2.539 -2.25,3.496 -8.718,9.578 -18.609,10.117 -1.433,0.059 -2.648,0.098 -3.711,0.098 -2.996,0 -4.105,-0.301 -5.265,-0.637 -0.184,-0.058 -0.34,-0.086 -0.52,-0.137 -0.141,-0.035 -0.309,0 -0.414,0.098 -0.109,0.11 -0.168,0.254 -0.137,0.41 0.242,1.485 1.117,3.356 5.645,5.836 1.316,0.739 2.605,1.285 3.844,1.801 2.859,1.223 5.359,2.285 7.085,5.078 -2.863,-0.828 -5.382,-1.234 -7.656,-1.234 -2.914,0 -5.054,0.652 -7.152,1.285 -1.875,0.566 -3.637,1.117 -5.918,1.207 -6.317,0.246 -10.16,-3.727 -12.117,-5.941 4.308,-1.668 5.343,-6.352 5.605,-8.188 1.25,0.707 2.707,1.09 4.09,1.09 2.199,0 3.695,-1.016 3.77,-2.574 0.187,-3.743 -1.633,-5.461 -2.528,-6.075 0.215,-1.218 -0.094,-2.406 -0.394,-3.554 -0.516,-1.973 -0.93,-3.524 1.257,-4.906"
         style="fill:#fff000;fill-opacity:1;fill-rule:nonzero;stroke:none"
         id="path140" />
      <path
         d="m 288.254,393.559 c 3.519,-3.93 5.965,-5.993 7.805,-6.489 -0.883,1.067 -1.965,2.621 -3.348,4.672 -3.434,4.988 -8.117,11.863 -12.215,12.645 -0.769,0.16 -1.543,0.199 -2.266,0.199 -3.71,0 -5.71,-1.816 -6.417,-2.606 -0.52,-0.566 -0.817,-1.136 -0.958,-1.593 7.68,-0.071 13.356,-2.301 17.399,-6.828"
         style="fill:#fff000;fill-opacity:1;fill-rule:nonzero;stroke:none"
         id="path142" />
      <path
         d="m 281.285,374.512 c 6.914,-1.453 11.289,-8.574 12.617,-13.489 1.313,3.801 2.012,9.879 0.993,13.133 -1.071,3.371 -5.286,9.785 -13.661,9.785 v 0.438 -0.438 c -0.371,0 -0.765,-0.031 -1.144,-0.046 -3.727,-0.25 -7.238,-1.793 -10.641,-3.274 -3.629,-1.578 -7.031,-3.07 -10.621,-3.07 -0.785,0 -1.558,0.09 -2.308,0.222 0.484,-2.746 2.296,-9.183 9.023,-9.589 0.148,-0.008 0.301,-0.008 0.441,-0.008 2.575,0 4.176,1.469 5.871,3.015 1.793,1.664 3.836,3.551 7.211,3.551 0.704,0 1.454,-0.074 2.219,-0.23"
         style="fill:#fff000;fill-opacity:1;fill-rule:nonzero;stroke:none"
         id="path144" />
      <path
         d="m 291.98,342.172 c -2.406,3.336 -1.839,8.172 -1.05,12.848 1.297,7.699 -4.442,14.589 -10.594,16.21 -0.547,0.153 -1.074,0.211 -1.574,0.211 -2.629,0 -4.094,-1.902 -4.559,-3.507 -0.418,-1.43 -0.258,-3.446 1.477,-4.536 9.965,-6.136 10.406,-11.441 10.836,-16.539 0.226,-2.789 0.453,-5.429 2.367,-8.164 1.5,-2.136 3.172,-3.257 4.824,-3.257 1.586,0 2.746,0.941 3.313,1.531 0.546,0.574 0.906,1.16 1.07,1.644 -2.762,0.582 -4.82,1.762 -6.11,3.559"
         style="fill:#fff000;fill-opacity:1;fill-rule:nonzero;stroke:none"
         id="path146" />
      <path
         d="m 286.848,324.555 c -2.383,-9.551 5.375,-15.321 7.59,-16.348 0.914,-0.43 1.808,-0.629 2.648,-0.629 1.648,0 2.797,0.86 3.465,1.563 0.594,0.648 0.996,1.351 1.222,1.968 -0.457,-0.078 -0.898,-0.136 -1.304,-0.136 -1.492,0 -2.793,0.566 -3.727,1.648 -2.207,2.535 -2.094,7.176 -1.621,10.625 0.305,2.188 0.031,3.856 -0.808,4.797 -0.661,0.758 -1.54,0.91 -2.145,0.91 -2.035,0 -4.641,-1.664 -5.32,-4.398"
         style="fill:#fff000;fill-opacity:1;fill-rule:nonzero;stroke:none"
         id="path148" />
      <path
         d="m 289.047,308.066 c -3.465,3.715 -7.813,8.317 -4.692,21.266 0.879,3.641 0.375,4.785 0.125,5.106 -0.089,0.117 -0.246,0.246 -0.57,0.246 -1.66,0 -4.597,-2.59 -5.512,-4.457 -2.312,-4.704 -5.207,-13.657 1.348,-20.711 1.695,-1.86 2.817,-3.481 3.809,-4.926 1.25,-1.809 2.152,-3.121 3.586,-3.899 1.113,-0.574 2.043,-0.613 3.031,-0.628 0.937,-0.02 1.957,-0.047 3.004,-0.637 0.168,1.047 0.07,2.972 -1.66,5.691 -0.653,1.016 -1.536,1.969 -2.469,2.949"
         style="fill:#fff000;fill-opacity:1;fill-rule:nonzero;stroke:none"
         id="path150" />
      <path
         d="m 280.664,302.914 c -0.598,0.633 -1.148,0.996 -1.605,0.996 -0.957,0 -1.7,-1.492 -1.973,-2.406 1.547,-0.879 3.891,-3.18 5.551,-5.27 0.066,1.957 -0.215,4.758 -1.973,6.68"
         style="fill:#fff000;fill-opacity:1;fill-rule:nonzero;stroke:none"
         id="path152" />
      <path
         d="m 259.871,315.375 c -0.266,-2.937 -0.547,-6 -1.762,-8.211 3.946,-2.484 6.536,-6.344 8.821,-9.793 2.547,-3.824 4.781,-7.172 8.164,-7.703 -2.418,3.574 -2.024,7.617 -1.617,11.852 0.086,0.945 0.179,1.902 0.25,2.871 0.3,4.589 -1.903,16.347 -5.68,20.375 -0.844,0.91 -1.731,1.371 -2.594,1.371 -0.371,0 -0.758,-0.078 -1.152,-0.258 -3.602,-1.465 -4.004,-5.844 -4.43,-10.504"
         style="fill:#fff000;fill-opacity:1;fill-rule:nonzero;stroke:none"
         id="path154" />
      <path
         d="m 256.742,303.73 c -1.601,-5.472 -1.246,-9.707 -0.039,-14.859 2.074,-0.332 6.227,-2.391 8.492,-5.238 0.739,7.933 -2.136,13.363 -4.047,16.008 -1.679,2.312 -3.351,3.589 -4.406,4.089"
         style="fill:#fff000;fill-opacity:1;fill-rule:nonzero;stroke:none"
         id="path156" />
      <path
         d="m 254.789,279.68 c -3.32,7.113 -5.254,19.109 -0.309,28.59 2.29,4.402 3.739,16.015 0.797,24.269 -1.367,3.844 -3.519,6.481 -6.347,7.809 -1.367,-1.532 -4.282,-11.875 -2.645,-18.102 0.07,-0.273 0.137,-0.273 0.258,-0.273 0.828,0 2.504,1.156 3.406,2.007 0.184,0.141 0.406,0.219 0.614,0.219 0.082,0 0.152,-0.015 0.234,-0.035 0.297,-0.078 0.519,-0.309 0.625,-0.574 0.527,-1.637 -0.723,-2.942 -2.207,-4.442 -2.258,-2.277 -5.668,-5.742 -5.758,-12.871 -0.117,-9.3 3.398,-20.984 11.332,-26.597"
         style="fill:#fff000;fill-opacity:1;fill-rule:nonzero;stroke:none"
         id="path158" />
      <path
         d="m 241.41,294.281 c -0.058,0.262 -0.14,0.399 -0.187,0.449 -0.063,-0.042 -0.2,-0.117 -0.34,-0.367 -0.578,-0.925 -0.887,-3.062 -0.067,-6.332 1.938,-7.558 5.024,-11.074 8.184,-13.488 0.258,1.656 0.043,5.168 -1.867,7.543 -3.418,4.164 -4.637,7.508 -5.723,12.195"
         style="fill:#fff000;fill-opacity:1;fill-rule:nonzero;stroke:none"
         id="path160" />
      <path
         d="m 242.828,274.438 c -0.265,1.796 -2.269,4.578 -3.058,4.816 -0.297,-0.52 -0.344,-2.395 -0.379,-3.43 -0.032,-0.926 -0.055,-1.824 -0.172,-2.539 1.758,-1.59 2.191,-3.328 2.578,-5.453 1.316,2.5 1.23,5.102 1.031,6.606"
         style="fill:#fff000;fill-opacity:1;fill-rule:nonzero;stroke:none"
         id="path162" />
      <path
         d="m 254.391,353.379 c -2.082,-4.801 0.714,-9.918 5.222,-17.18 1.508,-2.433 3.887,-3.832 6.383,-5.332 2,-1.199 4.223,-2.531 6.234,-4.539 0.344,1.215 0.821,2.309 1.278,3.399 1.824,4.289 3.555,8.336 -3.387,18.648 -1.547,2.313 -8.66,6.43 -12.941,6.43 v 0.449 -0.449 c -2.168,0 -2.645,-1.067 -2.789,-1.426"
         style="fill:#fff000;fill-opacity:1;fill-rule:nonzero;stroke:none"
         id="path164" />
      <path
         d="m 281.969,349.797 c -1.875,6.441 -7.809,10.578 -9.746,11.078 -0.157,0.039 -0.313,0.055 -0.442,0.055 -1.941,0 -2.875,-4.117 -3.121,-6.094 9.77,-8.215 10.305,-15.023 9.668,-19.758 3.817,4.902 5.055,9.848 3.641,14.719"
         style="fill:#fff000;fill-opacity:1;fill-rule:nonzero;stroke:none"
         id="path166" />
      <path
         d="m 217.008,366.742 0.812,-2.433 c 0,0 1.707,-1.301 1.883,-1.395 0.156,-0.086 1.367,0.82 1.367,0.82 l -1.175,2.274 -2.887,0.734"
         style="fill:#000000;fill-opacity:1;fill-rule:nonzero;stroke:none"
         id="path168" />
      <path
         d="m 330.113,207.445 c -0.429,0.637 -1.097,0.938 -1.992,0.938 -0.555,0 -0.953,-0.121 -0.953,-0.121 -0.063,-0.016 -0.125,-0.039 -0.176,-0.039 -1.992,0 -6.898,2.359 -6.496,3.988 0.266,1.016 1.813,2.519 3.57,3.352 -1.058,0.984 -2.726,0.816 -4.386,-0.235 -0.532,-0.351 -1.34,-0.582 -1.121,0.5 0.211,0.957 1.457,2.645 4.257,4.055 -1.761,1.09 -4.628,1.14 -7.132,-0.453 -0.11,-0.059 -0.254,0.039 -0.368,0.133 -0.218,0.164 -0.296,0.472 -0.171,0.73 0.796,1.633 5.089,3.121 5.011,5.934 -3.426,-0.731 -6.172,-0.344 -7.789,0.503 -0.164,0.094 -0.281,0.266 -0.312,0.477 -0.024,0.199 0.031,0.445 0.226,0.512 2.778,0.965 3.828,3.644 4.188,4.957 -2.031,-0.613 -4.844,-1.098 -6.649,0.746 -0.109,0.129 -0.207,0.262 -0.215,0.422 -0.273,2.687 -6.699,22.148 -25.011,24.293 -0.239,0.015 -0.492,0.054 -0.742,0.054 -1.11,0 -1.895,-0.347 -2.93,-0.781 -0.207,-0.082 -0.457,-0.183 -0.684,-0.285 -0.078,-0.039 -0.164,-0.039 -0.226,-0.039 -0.133,0 -0.242,0.039 -0.34,0.105 -0.16,0.098 -0.254,0.293 -0.254,0.5 0,1.442 1.012,2.606 1.676,3.395 0.09,0.086 0.191,0.207 0.277,0.305 -0.324,0.488 -0.785,1.222 -1.32,2.132 -0.891,1.489 -2.922,4.922 -3.758,5.34 -0.371,-0.656 -1.063,-1.535 -1.891,-2.629 -1.804,-2.332 -4.257,-5.566 -5.5,-8.644 -0.086,-0.246 -0.308,-0.399 -0.547,-0.399 h -0.042 c -0.254,0.036 -0.477,0.219 -0.543,0.461 -0.028,0.121 -0.082,0.293 -0.165,0.5 -0.46,1.477 -1.46,4.516 0.508,6.063 1.977,1.555 4.715,4.183 5.797,9.219 0.637,2.976 1.528,9 1.633,12.441 -2.215,0.203 -3.938,1.18 -6.32,2.855 0.23,-4.156 -0.868,-9.546 -3.129,-11.929 l -1.293,-1.387 -0.684,1.742 c -0.09,0.227 -0.187,0.449 -0.269,0.676 -1.43,3.672 -3.012,6.996 -6.52,7.344 0.059,-0.278 0.113,-0.567 0.184,-0.824 0.648,-3.086 1.265,-5.989 3.394,-7.551 l 1.457,-1.082 -1.562,-0.93 c -0.914,-0.547 -2.008,-0.82 -3.145,-0.82 -1.687,0 -3.383,0.601 -4.824,1.66 -0.059,-2.82 -0.723,-5.395 -2.086,-8.133 l -1.664,-3.308 -0.605,3.671 c -0.485,3.02 -1.27,3.707 -2.25,4.45 -0.11,-4.258 -1.957,-8.309 -4.981,-10.301 l -1.629,-1.039 -0.215,1.922 c -0.304,2.757 -0.75,4.41 -1.547,5.863 -0.375,-1.027 -0.878,-1.84 -1.375,-2.66 -0.41,-0.688 -0.851,-1.383 -1.183,-2.27 1.488,-2.011 3.176,-4.097 4.488,-5.363 0,0.519 0.141,0.926 0.391,1.258 0.285,0.355 0.687,0.554 1.179,0.554 0.149,0 0.25,-0.003 0.27,-0.023 0.184,-0.02 0.332,-0.16 0.422,-0.312 0.023,-0.043 1.797,-3.559 3.301,-6.915 1.382,-3.078 11.601,-15.113 16.726,-17.308 0.977,0.39 1.332,1.027 0.774,4.008 -0.192,1.035 0.066,1.98 0.75,2.8 0.504,0.614 1.34,1.184 1.718,1.184 0.575,0 0.618,-0.426 0.68,-1.285 0.434,-6.317 1.531,-10.625 3.289,-12.813 14.559,-18.293 39.324,-32.968 48.903,-33.933 0.187,-0.024 0.347,-0.125 0.445,-0.278 0.094,-0.148 0.121,-0.359 0.062,-0.531 -0.16,-0.41 -0.254,-1.113 -0.664,-1.82 -2.504,-4.117 -5.34,-10.496 -5.121,-11.762 0.219,-1.437 -0.613,-3.828 -1.805,-5.18 -0.949,-1.05 -3.605,-6.003 -3.296,-7.683 1.746,0.402 2.507,-0.106 1.711,-0.539 -0.344,-0.207 -4.426,-2.16 -4.879,-4.481 0.304,0.145 0.593,0.211 0.871,0.211 1.008,0 1.867,-0.57 2.281,-1.5 0.035,-0.117 0.062,-0.234 0.113,-0.379 0.629,3.067 4.574,7.145 6.645,5.653 -1.52,-0.492 -2.957,-2.129 -3.696,-3.602 0.379,0.156 0.805,0.238 1.258,0.238 0.09,0 0.176,0 0.254,-0.031 0.656,-0.043 1.196,-0.301 1.586,-0.754 0.527,-0.621 0.75,-1.558 0.652,-2.687 -0.113,-1.055 -0.921,-1.934 -1.785,-2.856 -0.023,-0.035 -0.05,-0.074 -0.086,-0.121 0.746,0.219 2.192,0.457 2.704,0.766 -0.208,1.68 -0.825,5.785 1.023,8.558 1.023,1.563 2.566,2.411 3.906,1.215 -1.152,-1.035 -2.984,-2.152 -3.086,-4.554 0.321,0.156 0.684,0.265 1.078,0.273 h 0.227 c 0.961,0 1.824,-0.398 2.355,-1.094 0.485,-0.672 0.629,-1.461 0.414,-2.234 -0.234,-0.785 -0.726,-1.465 -1.261,-2.207 1.761,0.16 4.008,1.004 5.34,2.504 2.062,2.273 2.234,4.594 1.504,5.883 -0.083,0.136 -0.102,0.285 -0.059,0.449 0.508,2.125 1.379,8.762 0.457,14.555 -0.172,1.101 -0.426,1.558 -0.617,1.933 -0.403,0.766 -0.563,1.227 -0.117,3.098 0.179,0.765 0.503,1.781 0.871,2.949 0.972,3.09 2.308,7.312 1.902,9.828 -0.25,1.481 0.258,2.727 0.715,3.844 0.59,1.457 1.055,2.629 0.023,4.105"
         style="fill:#fff000;fill-opacity:1;fill-rule:nonzero;stroke:none"
         id="path170" />
      <path
         d="m 205.59,284.297 c 0,0 0.816,-1.074 1.781,-2.086 0.332,1.742 0.496,3.527 0.652,5.273 0.204,2.258 0.379,4.403 0.957,6.329 0.875,2.972 1.805,4.871 2.598,6.082 -1.301,0.308 -2.844,0.957 -3.863,2.261 l -0.641,0.817 0.739,0.757 c 0.273,0.258 0.585,0.532 0.921,0.833 1.516,1.351 2.735,2.566 2.93,4.113 l -3.406,-0.141 -4.766,-1.156 c -0.918,-0.84 -1.769,-1.949 -2.512,-3.426 l -1.125,-2.242 -1.027,2.293 c -0.316,0.723 -0.512,1.484 -0.652,2.25 -5.906,-0.688 -25.531,-5.215 -28.153,-6.199 -1.992,-0.746 -8.8,-1.102 -11.562,-1.602 -1.481,-0.262 -3.273,0.719 -4.609,0.688 -1.293,-0.036 -5.993,-2.317 -7.797,-2.121 -6.407,0.71 -16.782,-6.606 -13.617,-11.567 -0.02,0.012 -0.02,0.039 -0.02,0.059 -0.188,2.168 1.57,4.207 4.082,4.347 2.188,0.121 2.656,-2.804 2.488,-3.589 -0.172,-0.977 -0.629,-2.071 -0.965,-3.18 2.676,0.75 4.29,2.066 4.266,2.496 -0.055,1.812 0.207,5.984 3.356,7.422 0.062,0.019 2.621,0.515 0.707,-0.68 -1.903,-1.183 -2.543,-5.558 -1.747,-8.012 0.161,0.442 0.344,0.903 0.614,1.352 1.183,2.145 3.644,2.965 4.937,1.668 1.199,-1.203 1.848,-3.231 1.336,-4.098 -0.301,-0.539 -0.695,-1.05 -1.109,-1.633 2.508,0.508 3.816,1.34 3.726,2.903 -0.089,1.914 0.379,6.941 3.055,8.125 1.606,0.722 1.316,0.183 0.57,-0.602 -1.82,-1.926 -2.261,-4.078 -1.367,-7.832 0.172,1.422 0.821,2.594 2.317,3.168 4.308,1.594 4.519,-2.695 4.425,-3.496 -0.121,-1.199 -0.996,-2.094 -1.921,-3.043 0.195,0.027 0.339,0.027 0.531,0.063 5.578,0.804 4.293,7.527 4.215,8.039 0,0 0.961,0.406 1.515,-0.496 0.559,-0.895 0.172,-2.512 -0.32,-3.743 1.809,-0.086 6.523,3.313 7.851,4.391 0.59,0.035 2.344,-0.875 3.965,-0.355 -0.238,-2.411 1.879,-5.598 3.668,-6.649 0.645,1.84 1.188,4.391 2.785,6.121 0.301,-2.765 1.5,-4.961 3.356,-6.562 1.766,3.422 4.133,3.738 4.133,3.738 0,0 0.722,-3.816 3.136,-5.262 0.661,1.75 1.461,3.563 3.34,4.805 -0.023,-3.141 1.989,-4.805 3.707,-6.094 0.586,2.383 2.52,5.473 2.52,5.473"
         style="fill:#fff000;fill-opacity:1;fill-rule:nonzero;stroke:none"
         id="path172" />
      <path
         d="m 204.59,327.152 c 0.508,0 1.617,0.344 3.562,2.465 -0.093,0.317 -0.214,0.641 -0.347,0.946 -0.813,-0.032 -1.364,-0.071 -1.364,-0.071 -1.515,0 -2.984,0.039 -4.437,0.145 0.141,-0.282 0.285,-0.574 0.441,-0.91 0.664,-1.414 1.27,-2.575 2.145,-2.575"
         style="fill:#fff000;fill-opacity:1;fill-rule:nonzero;stroke:none"
         id="path174" />
      <path
         d="m 200.641,316.785 c -1.813,2.883 -4.993,8.387 -1.075,14.035 -15.75,1.598 -27.003,8.239 -27.003,8.239 0,0 -0.586,-1.575 -1.442,-1.907 -1.336,-0.515 -2.355,-0.097 -2.355,-0.097 0,0 1.941,2.394 0.875,4.101 -2.746,4.414 -10.68,6.133 -12.602,4.746 -0.934,-0.683 -0.891,-1.922 -0.59,-3.007 0.129,0.332 0.281,0.636 0.5,0.949 1.598,2.371 4.735,-1.547 4.297,-2.606 -0.426,-2.097 -1.789,-2.461 -1.226,-5.23 -1.618,-0.192 -3.86,2.211 -3.915,5.125 -0.515,0.82 -0.945,1.812 -0.773,2.945 -2.035,1.547 -4.402,1.836 -6.508,2.543 -1.304,0.449 -8.996,0.133 -6.758,-5.168 0.766,-1.808 1.668,-2.793 2.582,-3.273 -1.289,2.047 -0.765,4.285 -0.015,4.425 3.48,0.637 4.23,-2.351 3.808,-3.804 -0.023,-0.153 -0.066,-0.309 -0.097,-0.446 2.418,0.168 2.742,3.583 2.742,3.583 0,0 0.844,-0.192 0.668,-1.047 -0.527,-2.594 -1.766,-3.45 -3.145,-3.989 0.079,-0.507 -0.039,-1.105 0.196,-1.625 -1.36,0.118 -2.262,0.637 -2.711,1.188 -0.625,-0.027 -0.981,0 -1.446,0.039 0.758,-1.801 0.86,-3.043 0.063,-4.469 -0.016,-0.472 0.465,-1.019 0.887,-1.383 -0.422,-0.179 -1.285,-0.375 -2.282,-0.394 -0.472,-0.672 -0.64,-0.723 -1.929,-1.426 1.683,-2.168 0.847,-4.277 0.578,-6.172 1.746,-0.898 3.199,-2.722 3.488,-4.203 1.387,-0.394 9.281,1.641 11.223,3.477 1.64,0.211 4.754,1 6.742,1.097 -0.133,0.856 -0.344,3.414 1.352,3.364 -0.305,-0.543 0.171,-2.387 1.105,-3.528 3.945,-1.074 5.48,1.899 6.063,2.09 0.66,-2.437 1.343,-4.906 2.32,-6.066 1.164,2.632 2.402,4.863 4.199,4.875 -0.293,-1.602 0.395,-6.243 2.223,-8.707 1.133,1.89 2.84,3.086 4.027,3.359 -0.914,-4.391 2.356,-7.5 2.356,-7.5 0,0 1.195,5.098 3.117,5.508 -0.551,-4.219 2.023,-6.637 2.023,-6.637 0,0 0.36,2.336 0.945,3.156 0.5,-0.547 2.809,-1.789 5.028,-2.89 0.344,2.031 1.144,4.261 2.465,6.73"
         style="fill:#fff000;fill-opacity:1;fill-rule:nonzero;stroke:none"
         id="path176" />
      <path
         d="m 222.41,364.465 c 1.168,0.98 2.653,2.648 3.934,4.765 -18.422,5.055 -25.461,-5.675 -32.832,-8.523 -6.852,-2.633 -12.239,-0.687 -14.328,2.109 -4.071,5.438 0.152,11.067 3.121,10.258 -1.391,2.606 -9.899,0.828 -7.532,-9.758 -4.414,2.465 -5.355,8.09 -5.265,10.77 0.137,4.461 3.269,9.488 7.859,10.441 -6.785,1.512 -12.094,-4.707 -13.781,-10.457 -1.578,-5.402 -1.148,-14.906 10.812,-19.683 11.278,-4.5 19.188,1.105 22.899,4.074 2.297,1.867 9.348,8.363 15.125,10 2.125,0.598 8.726,0.031 9.988,-3.996"
         style="fill:#fff000;fill-opacity:1;fill-rule:nonzero;stroke:none"
         id="path178" />
      <path
         d="m 150.445,334.426 c 1.805,-0.395 3.184,-2.043 8.52,-0.996 2.933,0.586 -2.379,-3 -3.406,-9.883 -1.145,0.476 -1.848,1.316 -0.618,4.305 1.313,3.171 -4.761,3.433 -4.496,6.574"
         style="fill:#000000;fill-opacity:1;fill-rule:nonzero;stroke:none"
         id="path180" />
      <path
         d="m 309.836,221.523 c 0,0 -0.156,-6.367 0.109,-8.781 0.246,-2.429 7.278,-3.449 10.2,-6.734 1.765,3.805 -6.391,6.668 -6.918,8.019 -0.528,1.371 -0.715,7.328 -3.391,7.496"
         style="fill:#000000;fill-opacity:1;fill-rule:nonzero;stroke:none"
         id="path182" />
      <path
         d="m 323.723,197.27 c -1.493,-1.239 -0.368,-6.68 -0.457,-10.606 2.453,1.52 0.91,3.949 1.847,6.621 0.832,2.375 2.489,4.113 2.188,6.625 -1.094,-0.965 -2.496,-1.734 -3.578,-2.64"
         style="fill:#000000;fill-opacity:1;fill-rule:nonzero;stroke:none"
         id="path184" />
      <path
         d="m 337.539,342.172 c -1.223,0.625 -1.41,1.738 -1.41,1.738 0,0 3.051,-0.324 4.309,1.102 0.046,0.043 0.105,0.086 0.148,0.121 1.211,1.105 1.328,2.711 1.348,3.34 0,0.156 -0.02,0.273 -0.02,0.41 -0.621,-0.426 -1.371,-0.664 -2.086,-0.664 -0.082,0 -0.156,0 -0.234,0.023 -1.039,0.078 -2.383,1.055 -3.211,2.317 -0.774,1.242 -0.945,2.562 -0.477,3.75 0.582,1.527 1.727,1.691 2.18,1.691 0.644,0 1.269,-0.273 1.836,-0.691 -0.219,0.851 -0.789,1.933 -1.926,3.351 l -0.715,0.918 0.926,0.66 c 1.973,1.461 2.023,2.946 1.867,3.688 0,0 0,0.019 -0.011,0.039 -0.09,-0.36 -0.25,-0.699 -0.45,-0.992 -0.633,-0.953 -1.699,-1.528 -2.789,-1.528 -0.929,0 -1.761,0.45 -2.215,1.254 -0.925,1.543 0.137,4.164 1.954,7.539 7.769,14.348 10.96,31 5.726,40.801 -2.16,4.024 -6.023,6.172 -11.012,6.582 -0.711,0.055 -1.429,0.09 -2.101,0.09 -22.422,0 -25.266,-32.953 -25.446,-47.125 -0.453,-34.789 12.11,-55.063 21.54,-71.156 8.531,-14.547 14.3,-24.641 6.554,-38.742 -5.519,-10.047 -20.121,-11.407 -25.746,-11.036 1.406,-1.949 2.508,-3.777 3.352,-5.41 10.804,0.274 20.074,4.188 25.179,12.11 5.957,9.261 6.336,19.332 0.766,30.921 -4.062,8.411 -7.355,14.54 -11.43,20.786 -9.535,14.601 -16.578,27.339 -18.109,47.941 -1.68,22.547 0.187,61.797 24.398,60.113 5.332,-0.375 9.661,-4.093 11.821,-8.23 5.14,-9.86 -1.774,-27.36 -6.852,-37.539 -0.656,-1.297 -2.351,-2.485 -3.949,-2.485 -0.988,0 -2.637,0.125 -3.621,1.727 -0.629,1.059 -1.031,3.262 -0.297,5.73 -0.332,-0.187 -1.906,-2.246 -1.938,-5 -0.023,-2.933 1.551,-6.609 2.786,-8.07 0.722,-0.851 0.711,-1.418 0.711,-1.418 0,0 -2.473,0.836 -4.137,0.809 -2.141,-0.032 -3.805,-0.692 -4.832,-2.02 -0.508,-0.625 -0.821,-1.363 -0.965,-2.101 0.453,0.211 0.887,0.257 1.273,0.257 2.266,0 4.661,-2.558 5.844,-3.828 1.524,-1.644 1.34,-2.164 1.34,-2.164 0,0 -1.898,1.032 -3.652,0.723 -3.18,-0.578 -4.016,-2.121 -5.032,-5.57 -0.613,-2.063 -1.285,-4.352 -3.043,-5.504 1.2,-0.379 2.27,-0.496 3.118,-0.535 1.656,-0.055 2.836,1.132 3.793,1.757 1.211,0.778 2.285,-0.07 2.285,-0.07 0,0 -3.348,-0.926 -4.235,-3.324 -0.589,-1.606 -0.769,-5.199 0.207,-6.719 0.188,-0.316 0.414,-0.586 0.688,-0.805 0.023,0.34 0.078,0.692 0.207,1.024 1.367,3.605 6.551,5.164 6.551,5.164 0,0 3.371,-3.391 1.89,-11.645 -0.347,-1.886 -2.035,-5.168 -5.757,-3.816 0,-0.012 1.128,-2.344 3.867,-2.859 9.234,-1.95 9.855,14.699 9.855,14.699 0,0 2.5,2.441 6.133,-2.91 0.543,2.039 0.434,3.906 -0.305,5.504 -1.144,2.593 -4.492,4.257 -6.449,5.277"
         style="fill:#fff000;fill-opacity:1;fill-rule:nonzero;stroke:none"
         id="path186" />
    </g>
  </g>
</svg>
